<svg width="61" height="61" viewBox="0 0 61 61" fill="none" xmlns="http://www.w3.org/2000/svg">
<path d="M30.835 60C47.4035 60 60.835 46.5685 60.835 30C60.835 13.4315 47.4035 0 30.835 0C14.2664 0 0.834961 13.4315 0.834961 30C0.834961 46.5685 14.2664 60 30.835 60Z" fill="#5C2D91"/>
<path opacity="0.1" d="M10.0413 8.4375C6.99159 11.1551 4.529 14.467 2.80448 18.17C1.07997 21.873 0.129864 25.8892 0.0124055 29.9724C-0.105053 34.0556 0.612611 38.1198 2.12141 41.9159C3.6302 45.7119 5.89834 49.1598 8.7868 52.0483C11.6753 54.9367 15.1232 57.2049 18.9192 58.7137C22.7152 60.2225 26.7794 60.9401 30.8626 60.8227C34.9458 60.7052 38.962 59.7551 42.6651 58.0306C46.3681 56.3061 49.6799 53.8435 52.3976 50.7938L10.0413 8.4375Z" fill="white"/>
<path d="M7.77218 38.672C7.59719 38.6747 7.42352 38.6412 7.26215 38.5734C7.10079 38.5056 6.95523 38.4051 6.83468 38.2782C6.71083 38.1559 6.61295 38.0098 6.5469 37.8487C6.48085 37.6876 6.448 37.5148 6.45031 37.3407C6.44906 37.1668 6.4824 36.9943 6.54838 36.8334C6.61437 36.6724 6.71169 36.5262 6.83468 36.4032C6.95405 36.2742 7.09917 36.1716 7.26066 36.1022C7.42215 36.0327 7.59641 35.998 7.77218 36.0001C7.9477 35.9997 8.12145 36.0352 8.28269 36.1045C8.44393 36.1739 8.58926 36.2755 8.70968 36.4032C8.8348 36.5251 8.93413 36.6709 9.00177 36.832C9.06942 36.993 9.10399 37.166 9.10343 37.3407C9.10507 37.5156 9.07099 37.6889 9.00329 37.8501C8.93558 38.0113 8.83567 38.157 8.70968 38.2782C8.58811 38.4038 8.44237 38.5034 8.28124 38.5711C8.12011 38.6387 7.94694 38.6731 7.77218 38.672Z" fill="white"/>
<path d="M26.4002 38.4373H23.9439L15.1596 24.8061C14.9411 24.47 14.7589 24.1117 14.6158 23.7373H14.5408C14.6243 24.5156 14.6557 25.2986 14.6346 26.0811V38.4373H12.6377V21.3467H15.2346L23.7846 34.7342C24.1408 35.2904 24.3721 35.6717 24.4783 35.8779H24.5252C24.4263 35.0443 24.3856 34.2047 24.4033 33.3654V21.3467H26.4002V38.4373Z" fill="white"/>
<path d="M39.9193 38.4373H30.835V21.3467H39.4975V23.1561H32.8787V28.8373H39.0475V30.6373H32.8787V36.5623H39.9287L39.9193 38.4373Z" fill="white"/>
<path d="M53.3352 23.1561H48.3664V38.4373H46.3695V23.1561H41.457V21.3467H53.3352V23.1561Z" fill="white"/>
</svg>
