<svg width="78" height="60" viewBox="0 0 78 60" fill="none" xmlns="http://www.w3.org/2000/svg">
<path d="M36.1088 56.7927L54.3706 53.5636L54.5397 53.5255L45.147 42.3491C41.9971 38.6217 38.8643 34.8799 35.7488 31.1236C35.7488 31.0691 45.4525 4.34727 45.507 4.25455C50.8757 13.4456 56.2103 22.6566 61.5106 31.8873L77.6016 59.7873L77.727 60L18.0106 59.9945L36.1088 56.7927ZM0.272461 53.3891C0.272461 53.3727 4.6961 45.6873 10.107 36.3109L19.947 19.2545L31.4125 9.63273C37.7179 4.34727 42.8943 0 42.9106 0C42.87 0.161376 42.8095 0.317104 42.7306 0.463637L30.2725 27.1691L18.0543 53.3945L9.16337 53.4055C4.27064 53.4109 0.272461 53.4055 0.272461 53.3891Z" fill="#0089D6"/>
</svg>
