<?xml version="1.0" encoding="utf-8"?>
<!-- Uploaded to: SVG Repo, www.svgrepo.com, Generator: SVG Repo Mixer Tools -->
<svg width="800px" height="800px" viewBox="0 -34.32 378.383 378.383" xmlns="http://www.w3.org/2000/svg"><defs><style>.a{fill:#ffffff;}.b{fill:#211715;}.c{fill:#bdbdbd;}.d{fill:#febe69;}.e{fill:#a98a75;}.f{fill:#f8b8b4;}</style></defs><path class="a" d="M219.742,227.66a9.536,9.536,0,0,0-4.86,3.047,14.509,14.509,0,0,0-3.069,9.057,45.417,45.417,0,0,0,1.164,9.66,4,4,0,0,1-.271,3.139l3.109,1.274c1.085-3.834,2.5-7.616,3.92-11.3,1.4-3.635,3.427-8.532,5.776-13.974A7.124,7.124,0,0,0,219.742,227.66Z"/><path class="b" d="M254.23,274.678c0,11-.135,21.89-3.05,32.582-.678,2.487,3.179,3.548,3.857,1.064,3.007-11.03,3.193-22.293,3.193-33.646,0-2.574-4-2.579-4,0Z"/><path class="b" d="M155.744,294.7c5.142-1.473,10.231-3.154,15.334-4.755q14.475-4.542,28.941-9.115l17.942-5.663c2.446-.772,1.4-4.635-1.063-3.857-18.66,5.89-37.308,11.815-55.992,17.627-2.072.644-4.14,1.308-6.226,1.906-2.47.708-1.42,4.569,1.064,3.857Z"/><path class="a" d="M253.812,83.193a46.169,46.169,0,0,0-1.555,9.965c-.792,6.166-1.867,14.723-7.825,17.231a5.791,5.791,0,0,0-2.885,2.381c-1.657,2.945.86,4.586,2.329,6.521a9.53,9.53,0,0,1,1.757,4.224,59.037,59.037,0,0,0,.381,9.035,25.046,25.046,0,0,0,1.428,6.174,11.865,11.865,0,0,0,5.912,6.635c4.514,2.173,10.862,3.413,15.12,2.7a2.066,2.066,0,0,1,2.31,1.45,55.033,55.033,0,0,1,2.695,6.969l.358,1.2a43.062,43.062,0,0,1,14.618-7.415,80.69,80.69,0,0,1,22.348-3.373,5.489,5.489,0,0,1,1.089.1c2.44-4.06,7.672-7.635,10.875-10.5,6.112-5.476,15.3-16.425,16.447-32.8a48.156,48.156,0,0,0-5.578-25.257c-9.477-17.387-21.7-21.424-29.31-23.139a48.565,48.565,0,0,0-22.146.482c-14.568,3.529-22.016,12.866-23.338,14.976A33.561,33.561,0,0,0,253.31,85.3"/><path class="c" d="M281.144,56.037c-13.886,3.709-21.011,12.653-22.3,14.712a35.24,35.24,0,0,0-4.37,9.158,37.5,37.5,0,0,0,14.194,20.256s4.977.117,8.188.2a36.663,36.663,0,0,0,10.382,9.363,6.7,6.7,0,0,1,2.784-.918,5.919,5.919,0,0,1,4.845,1.486c1.808,1.768,2.288,4.985,1.794,7.5a14.917,14.917,0,0,1-6.425,10.041c-.03,1.031-.049,1.847-.049,1.847a25.915,25.915,0,0,0,5.018,11.1c2.494,2.827,9.26,5.368,13.427,6.3l2.866.624c2.217-4.358,7.881-8.186,11.271-11.224,6.112-5.476,15.3-16.425,16.447-32.8a48.156,48.156,0,0,0-5.578-25.257c-9.477-17.387-21.7-21.424-29.31-23.139a48.565,48.565,0,0,0-22.146.482Q281.657,55.9,281.144,56.037Z"/><path class="b" d="M275.407,155.944a51.858,51.858,0,0,0-1.81-4.971q-.38-.9-.781-1.8c-.067-.148-.13-.3-.2-.444-.19-.38.277.669-.026-.075-1.5-3.68-5.6-2.23-8.67-2.479a27.264,27.264,0,0,1-9.554-2.548,10.617,10.617,0,0,1-5.382-6.51,37.95,37.95,0,0,1-1.386-11.258,11.16,11.16,0,0,0-3.313-9.173c-.669-.756-1.57-1.6-1.138-2.68.559-1.4,2.212-1.741,3.373-2.444a13.337,13.337,0,0,0,5.174-6.54c2.816-6.782,2.146-14.3,4.048-21.3.676-2.487-3.181-3.548-3.857-1.063-1.739,6.4-1.331,13.157-3.375,19.489-.752,2.329-1.945,4.765-4.138,6.039-1.451.842-2.878,1.372-3.966,2.742a5.771,5.771,0,0,0-1.272,4.8c.688,3.1,4.118,4.63,4.493,7.908.184,1.606-.031,3.341.052,4.965a54.407,54.407,0,0,0,.635,6.055,18.27,18.27,0,0,0,4.36,9.732c2.2,2.34,5.276,3.579,8.295,4.485a27.584,27.584,0,0,0,11.192,1.233c.794-.1.6-.276.923.474.151.344.312.683.464,1.026a46.734,46.734,0,0,1,2,5.4c.748,2.455,4.61,1.408,3.857-1.064Z"/><path class="b" d="M255.239,85.829a33.294,33.294,0,0,1,2.792-9.6,46.888,46.888,0,0,1,2.337-4.146c.159-.257.319-.51.491-.758.108-.155.6-.8.267-.374a36.035,36.035,0,0,1,10.024-8.582,46.22,46.22,0,0,1,39.1-3.254c11.41,4.3,20.247,14.854,24.293,26.256a44.763,44.763,0,0,1,2,23.42,46.32,46.32,0,0,1-7.717,17.929,56.55,56.55,0,0,1-10.62,10.987,41.166,41.166,0,0,0-7.185,7,12.15,12.15,0,0,0-2.428,8.072,44.636,44.636,0,0,0,.394,4.705,2.011,2.011,0,0,0,2.46,1.4,2.052,2.052,0,0,0,1.4-2.46,34.621,34.621,0,0,1-.267-4.631,5.464,5.464,0,0,1,.737-3.261c1.567-2.908,4.253-5.12,6.755-7.2a67.1,67.1,0,0,0,11.573-11.708,48.787,48.787,0,0,0,7.546-42.891c-3.827-12.838-13.017-25.031-25.481-30.492a50.3,50.3,0,0,0-40.84.7c-9.554,4.446-17.253,12.125-20.305,22.355a41.656,41.656,0,0,0-1.186,5.469,2.064,2.064,0,0,0,1.4,2.46,2.016,2.016,0,0,0,2.461-1.4Z"/><path class="b" d="M287.306,112.089c1.924-1.554,5.283-2.1,6.73.375,1.345,2.3.8,5.144-.044,7.5-1.714,4.791-5.954,7.435-10.694,8.64-2.494.634-1.437,4.493,1.063,3.857,5.079-1.291,9.8-4.071,12.337-8.805S300.4,111,294.871,107.8c-3.459-2-7.472-.9-10.394,1.458a2.014,2.014,0,0,0,0,2.829,2.048,2.048,0,0,0,2.829,0Z"/><path class="b" d="M254.861,101.681c-.876,1.712-1.33,5.946,1.863,6.915,4.315.783,5.51-4.214,4.513-6.856C260.421,99.576,257.083,98.112,254.861,101.681Z"/><path class="b" d="M252.507,80.311a39.961,39.961,0,0,0,15.149,21.579,2.016,2.016,0,0,0,2.737-.718,2.045,2.045,0,0,0-.718-2.736,35.593,35.593,0,0,1-13.31-19.189c-.693-2.475-4.554-1.423-3.858,1.064Z"/><path class="b" d="M267.642,90.171c4.594,7.517,9.429,15.146,16.844,20.192a2,2,0,0,0,2.019-3.454c-6.807-4.632-11.2-11.87-15.409-18.757-1.341-2.193-4.8-.186-3.454,2.019Z"/><path class="b" d="M288.256,130.212a26.935,26.935,0,0,0,2.512,7.318,16.519,16.519,0,0,0,4.057,5.639,25.585,25.585,0,0,0,6.44,3.617,42.056,42.056,0,0,0,6.834,2.225c2.506.573,3.576-3.283,1.063-3.857a41.491,41.491,0,0,1-6.194-1.962,29.847,29.847,0,0,1-2.862-1.333,20.249,20.249,0,0,1-2.453-1.518,13.379,13.379,0,0,1-3.432-4.83,23.331,23.331,0,0,1-2.108-6.362,2.015,2.015,0,0,0-2.46-1.4,2.047,2.047,0,0,0-1.4,2.46Z"/><path class="b" d="M246.026,129.329a24.758,24.758,0,0,0,7.517.619,2,2,0,0,0,0-4,24.026,24.026,0,0,1-4.978-.178l.531.071c-.674-.093-1.345-.211-2.007-.369a2,2,0,0,0-1.063,3.857Z"/><path class="d" d="M244.844,188.247c5.28-9.907,11.609-16.606,20.8-20.833A134.034,134.034,0,0,1,297.7,157.026c3.4-.669,6.826-1.244,10.257-1.752a41.792,41.792,0,0,1,12.311-.084,24.565,24.565,0,0,1,4.935,1.836,63.534,63.534,0,0,1,21.351,22.088c-21.762,6.333-48.471,14.118-67.779,19.689-7.744,2.233-12.675,9.317-13.112,17.364-.9,16.464-1.572,33.292-2.291,49.075l-1.083,1.114s-12.282,12.626-12.885,12.582c-5.937,3.914-12.42,7.351-19.264,6.758a23.972,23.972,0,0,1-8.689-2.793,17.359,17.359,0,0,1-7.144-11.332c-1.718-9.805,1.842-19.731,5.426-29.036,5.017-13.024,18.067-42.227,25.219-54.719"/><path class="a" d="M31.3,144.381c.569-2.637,1.129-4.949,1.742-7.076-16.35-1.064-27.221,11.43-25.1,25.537,1.72,11.378,4.319,29.194,6.159,41.8,5.387-1.031,12.1-2.315,19.825-3.786a31.625,31.625,0,0,1-5.454-10.888c-2.7-9.3-2.15-19.82-.33-29.4C29.409,153.9,30.37,148.7,31.3,144.381Z"/><path class="a" d="M267.525,164.964c3.8-7.127,12.886-12.386,20.93-14.7a80.69,80.69,0,0,1,22.348-3.373h0a4.7,4.7,0,0,1,4.842,3.414l.792,3.883"/><path class="b" d="M269.252,165.974c3.483-6.386,10.454-10.551,17.121-12.937a74.783,74.783,0,0,1,12.952-3.2q3.354-.555,6.748-.785,1.772-.122,3.546-.15a6.91,6.91,0,0,1,2.446.19c2.114.75,2.063,3.762,2.444,5.629.514,2.521,4.371,1.454,3.857-1.063-.482-2.359-.646-5.047-2.476-6.812a7.722,7.722,0,0,0-5.56-1.952,69,69,0,0,0-8.025.513c-9.212,1.1-18.73,3.343-26.594,8.465a29.034,29.034,0,0,0-9.913,10.085c-1.233,2.261,2.22,4.282,3.454,2.019Z"/><path class="b" d="M154.84,177.612q24.045-4.587,48.09-9.17h-1.063q19.1,5.281,38.21,10.56c2.483.691,3.543-3.167,1.063-3.857q-15.852-4.412-31.719-8.767l-3.694-1.02c-1.294-.358-2.705-.969-4.048-.737-2.665.459-5.318,1.012-7.974,1.519l-17.87,3.407-22.058,4.208c-2.526.482-1.457,4.338,1.063,3.857Z"/><path class="b" d="M353.06,222.7a72.057,72.057,0,0,0,.277-30.553,47.66,47.66,0,0,0-4.645-13.3,61.87,61.87,0,0,0-8.967-12.358,61.019,61.019,0,0,0-13.51-11.192c-2.216-1.323-4.229,2.134-2.019,3.454a59.12,59.12,0,0,1,20.2,20.61c4.673,7.969,6.249,17.376,6.39,26.512a63.672,63.672,0,0,1-1.579,15.758c-.6,2.5,3.259,3.571,3.857,1.064Z"/><path class="b" d="M326.215,155.3c-4.573-2.838-10.668-2.807-15.811-2.32a142.915,142.915,0,0,0-21.147,3.879,132.315,132.315,0,0,0-18.729,6.25c-5.59,2.334-10.945,4.831-15.592,8.785a52.31,52.31,0,0,0-11.819,15.344c-1.217,2.269,2.235,4.291,3.454,2.019a50.916,50.916,0,0,1,9.628-13.129c4.024-3.81,8.768-6.294,13.812-8.487,12.071-5.246,24.758-8.366,37.745-10.327a43.27,43.27,0,0,1,10.282-.4,14.62,14.62,0,0,1,6.158,1.844c2.193,1.362,4.2-2.1,2.019-3.454Z"/><path class="a" d="M262.52,282.77c1.087-20.42,1.909-43.859,3.145-66.6.437-8.047,5.368-15.131,13.112-17.364,22.993-6.634,56.481-16.408,79.613-23.131,9.024-2.623,18.264,4.2,17.972,13.589-.477,15.37-3.422,35.314-4.882,50.4"/><path class="b" d="M264.52,282.77c.989-18.634,1.679-37.283,2.594-55.92.364-7.417-.362-15.809,5.059-21.678a17.214,17.214,0,0,1,8.294-4.775q5.282-1.525,10.562-3.055,23.4-6.78,46.8-13.6c7.184-2.092,14.348-4.45,21.6-6.275a12.184,12.184,0,0,1,14.384,7.827c1.071,3.378.443,7.222.213,10.693-.281,4.242-.671,8.477-1.105,12.7-.862,8.4-1.919,16.769-2.837,25.158q-.318,2.907-.6,5.818a2.016,2.016,0,0,0,2,2,2.043,2.043,0,0,0,2-2c.837-8.6,1.934-17.166,2.882-25.751.484-4.38.937-8.763,1.3-13.154a108.449,108.449,0,0,0,.695-12.371A15.989,15.989,0,0,0,365.9,173.505c-3.75-.824-7.124-.028-10.725,1.02q-5.569,1.619-11.138,3.24-24.312,7.076-48.625,14.142-5.691,1.651-11.384,3.3c-3.5,1.012-7.219,1.77-10.378,3.656a20.15,20.15,0,0,0-7.249,7.558,24.961,24.961,0,0,0-2.8,10.958c-1.05,19.586-1.773,39.188-2.74,58.778q-.163,3.308-.339,6.615c-.136,2.572,3.864,2.565,4,0Z"/><path class="b" d="M243.227,186.807c-3.7,6.485-6.926,13.253-10.1,20.007q-5.5,11.7-10.572,23.605c-3.4,7.995-6.959,16.114-9.117,24.547-2.585,10.105-2.755,22.337,6.389,29.218a18.548,18.548,0,0,0,6.371,2.769,20.374,20.374,0,0,0,7.335.72c6.205-.605,11.757-3.644,16.883-7.008l-1.01.273c1.383-.145,2.378-1.3,3.342-2.211,1.519-1.431,3-2.906,4.473-4.382q3.266-3.266,6.484-6.575c1.8-1.846-1.03-4.678-2.829-2.828-3.915,4.024-7.775,8.2-11.994,11.911-.141.123-.29.239-.428.366-.16.147.459-.232.022-.034,1.287-.58,1.014-.345.4-.176a4.627,4.627,0,0,0-1.223.688c-.811.524-1.629,1.036-2.46,1.528a34.311,34.311,0,0,1-8.865,3.924,16.9,16.9,0,0,1-8.23.161,15.626,15.626,0,0,1-6.44-2.741c-4.978-4.112-6.123-10.441-5.714-16.593.472-7.085,3.029-13.9,5.553-20.472,3.319-8.64,7.067-17.122,10.881-25.552,4.45-9.834,8.946-19.744,14.3-29.126,1.278-2.239-2.177-4.256-3.454-2.019Z"/><path class="b" d="M224.129,225.751c-5.894-1.5-11.166,2.566-13.2,7.9a20.327,20.327,0,0,0-1.036,8.79c.135,1.716.4,3.425.705,5.119.185,1.034.977,3.031.381,4-1.355,2.2,2.1,4.208,3.454,2.018,1.445-2.344.32-5.31-.1-7.8a24.345,24.345,0,0,1-.3-8.316c.763-4.233,4.1-9.1,9.037-7.847,2.5.634,3.561-3.223,1.063-3.857Z"/><path class="b" d="M2.506,208.9q14.7-2.809,29.4-5.62c2.526-.482,1.457-4.338-1.063-3.857q-14.7,2.8-29.4,5.62c-2.525.482-1.456,4.338,1.064,3.857Z"/><path class="b" d="M22.732,136.474A24.14,24.14,0,0,0,5.811,156.917c-.517,4.785.694,9.694,1.4,14.412q1.188,7.989,2.357,15.982,1.311,8.935,2.613,17.873a2.013,2.013,0,0,0,2.46,1.4,2.053,2.053,0,0,0,1.4-2.46Q13.828,189.008,11.6,173.9q-.524-3.543-1.053-7.086a62.821,62.821,0,0,1-.846-6.447A19.737,19.737,0,0,1,23.8,140.331c2.442-.782,1.4-4.646-1.064-3.857Z"/><path class="e" d="M53.244,106.811c-6.55-3.007-6.693-7.527-6.767-10.24a30.184,30.184,0,0,1,1.574-10.658c1.434-4.715,4.066-14.279,3.639-31.186a81.181,81.181,0,0,1-.446-10.7c.02-1.665.062-3.075.1-4,.4-11.038,6.589-23.807,14.731-28.835,9.811-7.882,18.677-9.653,27.508-9.1,12.534.78,22.56,5.749,29.222,13.794a38.558,38.558,0,0,1,7.571,17.326A61.42,61.42,0,0,1,129.746,54c-1.193,13.25,2.763,27.222,1.821,38.064-.29,3.446-1.992,7.6-6.75,10.891Z"/><path class="a" d="M84.422,90.067a43.061,43.061,0,0,1-9.978-7.155A44.609,44.609,0,0,1,69.487,76.7s-1.427-2.2-2.029-3.464c0,0-.158-.331-.406-.846a10.156,10.156,0,0,1-5.487-1.134A13.946,13.946,0,0,1,56.3,65.052c-1.294-2.614-1.872-7.009-.708-9.571a4.811,4.811,0,0,1,4-2.752,4.953,4.953,0,0,1,5.074,2.188c10.107-3.15,18.387-12.368,25.344-18.965a.312.312,0,0,1,.517.3,22.375,22.375,0,0,0-.674,5.434,1.411,1.411,0,0,0,1.9,1.323c8.786-3.186,16.818-8.458,22.042-15.041a95.965,95.965,0,0,0,4.479,10.156c2.024,3.891,7.34,10.591,11.754,12.155-.8,5.652-1.292,11.348-1.868,16.556-.927,8.39-3.492,15.976-9.376,20.784a27,27,0,0,1-20.6,6.4,36.954,36.954,0,0,1-3.675-.512,49.152,49.152,0,0,1-10.085-3.448"/><path class="f" d="M72.475,217.651c-15.134-.042-27.8-4.813-35.853-13.6a33.2,33.2,0,0,1-8.147-14.08c-2.7-9.306-1.927-20.756.141-30.287,2.333-10.754,4.2-24.707,8.925-33.415,7.346-13.54,15.489-17.09,28.911-24.884a50.645,50.645,0,0,0,31.713,8.3c7.424-.448,14.372-2.773,19.029-9.153,17.364,5.907,25.379,15.686,28.287,34.353,2.528,16.226,2.379,33.991,2.251,51.1-.189,2.98-.3,4.5-3.286,6.4l-32.129,8.964L77.03,212.156Z"/><path class="a" d="M71.367,104.285a49.971,49.971,0,0,1-5.005-2.962,37.143,37.143,0,0,0,4.69-2.694,7.118,7.118,0,0,0,2.65-3.46A58.482,58.482,0,0,0,76,84.345a44.366,44.366,0,0,0,8.419,5.722,49.152,49.152,0,0,0,10.085,3.448,36.954,36.954,0,0,0,3.675.512,28.3,28.3,0,0,0,10.077-.794c.151,1.161.289,2.2.289,2.2a3.726,3.726,0,0,0,.268,1.137,2.815,2.815,0,0,0,.731.886,19.9,19.9,0,0,0,6.838,4.12c-4.629,5.586-11.212,7.682-18.22,8.1A51.271,51.271,0,0,1,71.367,104.285Z"/><path class="a" d="M81.107,215c1.443,3.066,5.255,3.9,8.575,4.585,2.5.514,6.215-.1,8.618.557,1.309.357,2.71,2.032,3.989,2.482a2.883,2.883,0,0,0,3.568-1.084,3.58,3.58,0,0,0,.47-3.1,8.363,8.363,0,0,0-.729-1.224c2.007-.114,4.311-.25,4.311-.25a17.22,17.22,0,0,0,11.1,3.418c2.456-.2,5.66-.357,7.266-2.63a135.866,135.866,0,0,0,11.55-14.206c1.354-1.536,2.268-4.966,1.3-6.923-1.579-3.227-6.119-7.237-10.558-9.48a4.965,4.965,0,0,0-4.151-.132c-3.767,1.59-8.558,2.174-12.23,3.839-.293.137-.576.267-.851.415a18.217,18.217,0,0,1-1.969,1.087,18.639,18.639,0,0,0-7.138-2.1c-2.228-.185-12.309.749-15.934,1.406a13.868,13.868,0,0,0-6.7,3.385c-2.182,2.062-3.116,5.095-3.856,8.008-.749,2.978-1.387,6.1-.7,9.1l1.791,1.251Z"/><path class="b" d="M69.431,101.966a19.337,19.337,0,0,0,3.76-2.508,9.218,9.218,0,0,0,2.6-4.288,62.249,62.249,0,0,0,1.941-8.819,2.066,2.066,0,0,0-1.4-2.46,2.014,2.014,0,0,0-2.46,1.4,60.368,60.368,0,0,1-1.719,8.057c-.111.387-.223.774-.341,1.159-.042.137-.082.275-.133.408s-.046.123,0-.013l-.1.187a5.666,5.666,0,0,1-1.054,1.383,14.919,14.919,0,0,1-3.12,2.043,2,2,0,0,0,2.019,3.454Z"/><path class="b" d="M130.442,141.179c.388,7.4,1.464,14.8.839,22.214a71.738,71.738,0,0,1-2.154,12.148,43.539,43.539,0,0,0-1.35,5.818,32.662,32.662,0,0,0-.025,5.48c.12,2.563,4.121,2.578,4,0a30.206,30.206,0,0,1,.008-5.346,52.412,52.412,0,0,1,1.455-5.792,77.834,77.834,0,0,0,2.066-12.308c.625-7.417-.451-14.814-.839-22.214-.135-2.561-4.136-2.576-4,0Z"/><path class="b" d="M66.45,103.769a52.393,52.393,0,0,0,22.169,7.686c6.541.73,13.739.586,19.917-1.894a23.267,23.267,0,0,0,9.528-6.9,2.058,2.058,0,0,0,0-2.828,2.014,2.014,0,0,0-2.828,0c-4.024,4.963-9.862,7.263-16.118,7.783a51.167,51.167,0,0,1-18.842-1.882,47.907,47.907,0,0,1-11.807-5.417c-2.185-1.375-4.195,2.085-2.019,3.454Z"/><path class="b" d="M106.548,95.436a6.694,6.694,0,0,0,.394,1.8,4.387,4.387,0,0,0,1.025,1.483,23.445,23.445,0,0,0,2.261,1.851,21.92,21.92,0,0,0,4.675,2.573,2,2,0,0,0,1.541-.2,2,2,0,0,0,.717-2.736,2.354,2.354,0,0,0-1.2-.919c-.326-.136.33.145.1.043l-.213-.095c-.159-.072-.318-.145-.475-.222-.334-.161-.663-.333-.988-.513a20.164,20.164,0,0,1-1.855-1.171q-.221-.157-.437-.319c-.051-.039-.282-.215-.037-.027.262.2-.027-.023-.083-.068q-.429-.344-.838-.709c-.145-.129-.294-.256-.431-.394-.029-.029-.153-.127-.156-.168.007.09.26.389.072.074-.037-.062-.156-.321-.028-.024.135.314.013-.009-.007-.088a5.5,5.5,0,0,1-.1-.585l.071.532-.015-.12a2.2,2.2,0,0,0-.586-1.414,2,2,0,0,0-2.829,0,1.916,1.916,0,0,0-.585,1.414Z"/><path class="b" d="M108.9,218.7a19.846,19.846,0,0,0,15.927,3.237,9.27,9.27,0,0,0,3.264-1.284,19.912,19.912,0,0,0,3.386-3.435c1.674-1.857,3.294-3.759,4.837-5.726,1.691-2.155,3.3-4.373,4.955-6.553a10.073,10.073,0,0,0,2.2-7.17c-.3-2.64-2.283-4.889-4.1-6.692a30.64,30.64,0,0,0-7.426-5.466,7.416,7.416,0,0,0-5.234-.784c-1.593.387-3.121,1.12-4.712,1.559-3.283.907-6.812,1.53-9.8,3.24-2.234,1.278-.221,4.736,2.019,3.454a29.24,29.24,0,0,1,7.209-2.4c1.22-.319,2.44-.639,3.639-1.032,1.147-.375,2.373-1.138,3.609-1a8.366,8.366,0,0,1,3.227,1.567,27.335,27.335,0,0,1,3.148,2.318c1.553,1.33,3.649,3.111,4.36,5.111.579,1.631-.336,3.632-1.3,4.905-1.417,1.862-2.784,3.762-4.216,5.613q-1.893,2.448-3.936,4.775-1.211,1.382-2.456,2.73a6.562,6.562,0,0,1-2.417,2.065,14.7,14.7,0,0,1-6.617.611,15.861,15.861,0,0,1-7.534-3.094,2.012,2.012,0,0,0-2.736.718,2.048,2.048,0,0,0,.717,2.736Z"/><path class="b" d="M119.663,199.946a10.3,10.3,0,0,0,1.6-.5,11.157,11.157,0,0,0,1.813-.881,2.1,2.1,0,0,0,.919-1.195,1.512,1.512,0,0,0,.035-.8,1.486,1.486,0,0,0-.237-.744,2,2,0,0,0-2.736-.718,8.2,8.2,0,0,1-1.217.63l.478-.2a10.445,10.445,0,0,1-1.719.547,2.035,2.035,0,0,0-1.195.919,1.48,1.48,0,0,0-.238.744,1.523,1.523,0,0,0,.036.8,2.025,2.025,0,0,0,.919,1.195,2.164,2.164,0,0,0,1.541.2Z"/><path class="b" d="M58.091,157.933c-1.723,6.459-3.138,13.031-2.523,19.737.308,3.371.95,6.381,3.044,9.142,2.474,3.262,5.885,4.992,9.575,6.561a53.436,53.436,0,0,0,10.3,3.15c2.513.515,3.587-3.34,1.063-3.857a51.62,51.62,0,0,1-8.08-2.247c-3.134-1.194-6.493-2.526-8.837-5.007A11.794,11.794,0,0,1,59.6,178a34.155,34.155,0,0,1,.015-7.957A89.773,89.773,0,0,1,61.948,159c.665-2.49-3.193-3.552-3.857-1.063Z"/><path class="b" d="M67.409,98.51c-8.149,4.8-17.065,8.989-23.745,15.855a47.258,47.258,0,0,0-8.47,12.1,71.33,71.33,0,0,0-5.076,15.813c-1.255,5.6-2.232,11.261-3.431,16.875a80.981,80.981,0,0,0-1.93,18.62,45.892,45.892,0,0,0,3.579,17.612,37.662,37.662,0,0,0,9.681,12.822c9.447,8.257,22.149,11.371,34.458,11.442,2.574.014,2.577-3.986,0-4-10.371-.06-20.97-2.346-29.477-8.541a35.65,35.65,0,0,1-9.749-10.856,36.561,36.561,0,0,1-4.378-15.861,71.165,71.165,0,0,1,1.178-17.72c1-5.379,2.122-10.753,3.234-16.112a95.161,95.161,0,0,1,4.289-15.632,42.5,42.5,0,0,1,7.247-11.9c6.6-7.678,16.044-12.01,24.608-17.061,2.216-1.306.206-4.765-2.018-3.453Z"/><path class="b" d="M117.631,102.792a44.1,44.1,0,0,1,13.4,7.214,31.911,31.911,0,0,1,8.434,10.96,55.366,55.366,0,0,1,4.3,15.8,203.161,203.161,0,0,1,1.831,22.852c.281,8.783.21,17.573.144,26.358-.019,2.575,3.981,2.577,4,0,.121-16.158.3-32.407-1.864-48.456-1.48-10.956-4.607-22-13.143-29.6a48.2,48.2,0,0,0-16.031-8.991c-2.427-.871-3.472,2.993-1.063,3.857Z"/><path class="b" d="M101.534,216.4a5.626,5.626,0,0,1,2.58,2.191c.438.668.609,1.92-.406,2.218s-2.239-1.1-2.971-1.621a7.558,7.558,0,0,0-3.8-1.283c-2.718-.28-5.385.072-8.075-.532-2.281-.513-4.888-1.13-6.032-3.381-1.167-2.295-4.619-.273-3.454,2.019,1.689,3.323,5.354,4.552,8.763,5.293a25.816,25.816,0,0,0,5.684.51c1.7-.006,3.454-.191,4.891.828,1.572,1.114,2.948,2.32,5.026,2.184a4.973,4.973,0,0,0,4.4-3.481c1.462-3.907-2.152-7.513-5.543-8.8a2.016,2.016,0,0,0-2.46,1.4,2.043,2.043,0,0,0,1.4,2.46Z"/><path class="b" d="M122,204.083c.169-5.418-4.264-10.234-8.622-12.885a20.646,20.646,0,0,0-12-2.9c-3.665.2-7.331.556-10.969,1.038-4.471.592-8.777,2.081-11.573,5.856a21.474,21.474,0,0,0-3.138,7.775,21.846,21.846,0,0,0-.592,9.716c.52,2.52,4.377,1.453,3.858-1.063a16.512,16.512,0,0,1,.482-7.139,23.336,23.336,0,0,1,2.007-5.97c1.839-3.326,5.407-4.677,8.982-5.177,3-.42,6.2-.714,9.289-.932,3.161-.223,6-.246,9.029.937,4.141,1.617,9.4,5.842,9.248,10.739-.08,2.575,3.92,2.572,4,0Z"/><path class="b" d="M104.161,201.619a22.017,22.017,0,0,1,3.725.931c.247.086.491.178.734.275.172.068.327.141.067.025.125.056.25.111.374.169.471.219.932.459,1.379.723.389.229.768.475,1.132.74.039.029.342.3.118.086s.048.042.1.087q.24.2.467.411a12.149,12.149,0,0,1,1.022,1.094c.079.095.157.192.235.288.376.461-.109-.161.09.112s.379.518.559.785a2,2,0,1,0,3.454-2.019,16.145,16.145,0,0,0-5.032-4.962,20.817,20.817,0,0,0-7.363-2.6,2.05,2.05,0,0,0-2.46,1.4,2.024,2.024,0,0,0,1.4,2.46Z"/><path class="b" d="M104.386,209.488c.075.006.151.014.226.019.365.027-.176-.047-.21-.03.085-.043.374.069.471.091a8.588,8.588,0,0,1,1.017.3c.082.03.163.063.245.093.318.116-.358-.161-.134-.06.164.074.328.148.489.228a11.425,11.425,0,0,1,1.008.564q.235.148.464.307c.077.053.152.107.227.162.258.188.006.02-.094-.078.262.256.567.469.831.725s.517.547.763.834c.148.173-.3-.427-.089-.114.049.071.1.141.149.212.106.155.2.313.3.475A2,2,0,0,0,113.5,211.2a11.749,11.749,0,0,0-3.983-3.959,11.2,11.2,0,0,0-5.131-1.751,2.011,2.011,0,0,0-2,2,2.047,2.047,0,0,0,2,2Z"/><path class="b" d="M96.014,59.831c.464-1.713-.009-5.6-3.23-5.822-4.243.17-4.309,4.891-2.805,7.058C91.21,62.842,94.675,63.479,96.014,59.831Z"/><path class="b" d="M121.235,59.765c.424-1.718-.01-5.618-2.96-5.842-3.885.17-3.944,4.906-2.567,7.081C116.836,62.784,120.009,63.425,121.235,59.765Z"/><path class="b" d="M104.958,65.57a29.183,29.183,0,0,1,1.656,3.076l-.2-.477a1.891,1.891,0,0,1,.132.448l-.071-.532a1.27,1.27,0,0,1,0,.185l.071-.532a.767.767,0,0,1-.044.171l.2-.477a.53.53,0,0,1-.061.1l.313-.405a2.065,2.065,0,0,1-.291.27l.405-.312a1.936,1.936,0,0,1-.349.2l.478-.2a1.9,1.9,0,0,1-.418.112l.531-.072c-.328.042-.652.071-.981.119a1.993,1.993,0,0,0-1.195.919,2,2,0,0,0,.717,2.737l.478.2a2.018,2.018,0,0,0,1.063,0l.042-.006-.532.072a8.9,8.9,0,0,0,1.142-.152,3.8,3.8,0,0,0,1.571-.895,2.6,2.6,0,0,0,.86-1.978,4.124,4.124,0,0,0-.524-1.761c-.466-.969-.993-1.911-1.542-2.835a2.076,2.076,0,0,0-1.2-.92,2,2,0,0,0-2.259,2.938Z"/><path class="b" d="M64.443,51.852a7.723,7.723,0,0,0-8.748.379c-2.028,1.571-2.7,4.095-2.733,6.572-.066,5.431,2.83,11.48,7.658,14.221a10.544,10.544,0,0,0,9.284.587,2.015,2.015,0,0,0,.717-2.736,2.047,2.047,0,0,0-2.736-.718,5.468,5.468,0,0,1-3.4.065,6.1,6.1,0,0,1-2.818-1.3,12.635,12.635,0,0,1-3.975-5.713c-.7-2.048-1.215-5.034-.261-6.945a4.174,4.174,0,0,1,.308-.509c-.245.353.088-.091.137-.138a2.733,2.733,0,0,1,1.062-.676,3.734,3.734,0,0,1,3.49.365,2,2,0,0,0,2.019-3.454Z"/><path class="b" d="M85.431,88.34a38.64,38.64,0,0,1-9.417-6.688,35.367,35.367,0,0,1-6.829-9.422,2.02,2.02,0,0,0-2.737-.717,2.041,2.041,0,0,0-.717,2.736,33.942,33.942,0,0,0,2.885,4.7,41.39,41.39,0,0,0,4.57,5.531,43.1,43.1,0,0,0,10.226,7.313c2.28,1.19,4.3-2.26,2.019-3.454Z"/><path class="b" d="M127.854,51.489c-.717,5.465-1.1,10.971-1.827,16.433a34.7,34.7,0,0,1-3.8,12.455c-4.271,7.582-13.044,11.911-21.6,11.779a37.947,37.947,0,0,1-15.2-3.816,2.059,2.059,0,0,0-2.736.718,2.016,2.016,0,0,0,.717,2.736C92.8,96.1,103.4,97.985,113.117,93.567a28.044,28.044,0,0,0,11.206-9.03A33.018,33.018,0,0,0,129.5,71.36c1.216-6.546,1.487-13.272,2.353-19.871a2.01,2.01,0,0,0-2-2,2.052,2.052,0,0,0-2,2Z"/><path class="b" d="M107.6,77.182a13.04,13.04,0,0,0-5.455-1.258,14.472,14.472,0,0,0-5.314.959A2,2,0,1,0,97.9,80.74a18.436,18.436,0,0,1,2.272-.7c.162-.034.333-.046.493-.087-.093.024-.425.048-.147.023.11-.01.22-.022.33-.03.387-.029.775-.038,1.163-.03s.747.031,1.118.07c.07.007.479.058.15.014-.3-.041.017,0,.078.014q.27.043.538.1a10.838,10.838,0,0,1,1.077.278c.175.056.345.129.519.185.235.074-.361-.186-.155-.066.078.046.17.081.251.122a2,2,0,1,0,2.019-3.454Z"/><path class="b" d="M87.2,49.816,85.106,51.74a1.5,1.5,0,0,0-.414.643,2.054,2.054,0,0,0,.414,2.185,2.012,2.012,0,0,0,1.414.586l.532-.071a2,2,0,0,0,.882-.515l2.089-1.923a1.934,1.934,0,0,0,.414-2.185,1.5,1.5,0,0,0-.414-.644,2.009,2.009,0,0,0-1.414-.585l-.532.071a2,2,0,0,0-.882.514Z"/><path class="b" d="M145.732,185.981c-.041.647-.08,1.294-.166,1.937l.072-.532a6.718,6.718,0,0,1-.416,1.64l.2-.478a4.828,4.828,0,0,1-.611,1.04l.313-.405a6.928,6.928,0,0,1-1.2,1.164l.405-.313c-.289.221-.587.426-.893.622a2,2,0,0,0,2.019,3.454,8.579,8.579,0,0,0,3.409-3.513,13.181,13.181,0,0,0,.867-4.616,2.011,2.011,0,0,0-2-2,2.048,2.048,0,0,0-2,2Z"/><path class="b" d="M61.264,12.413C55.848,17.591,52.27,24.756,50.5,31.979c-1.853,7.548-1.236,15.328-.8,22.993A93.062,93.062,0,0,1,48.284,76.49q-.585,3.242-1.447,6.425a67.471,67.471,0,0,0-2.046,8.172,23.73,23.73,0,0,0,.238,9.768c1.068,3.6,3.89,6.114,7.206,7.683,2.314,1.1,4.347-2.352,2.019-3.453-2.472-1.171-4.7-2.821-5.432-5.518a21.1,21.1,0,0,1-.163-7.476,56.938,56.938,0,0,1,1.961-7.844q.807-2.917,1.373-5.895a106.452,106.452,0,0,0,1.743-19.818c.01-7.439-1.231-14.962-.019-22.385,1.256-7.687,4.69-15.472,10.375-20.908,1.865-1.782-.967-4.608-2.828-2.828Z"/><path class="b" d="M128.081,51.108c-1.013,7.526-.382,15.033.45,22.544.4,3.61.835,7.221,1.054,10.848a32.275,32.275,0,0,1-.229,8.853,13.348,13.348,0,0,1-5.549,7.873,2.055,2.055,0,0,0-.717,2.737,2.016,2.016,0,0,0,2.736.717,18.344,18.344,0,0,0,6.591-7.83,22.078,22.078,0,0,0,1.295-8.763c-.049-7.525-1.419-14.982-1.952-22.477a65.957,65.957,0,0,1,.178-13.438,2.07,2.07,0,0,0-1.4-2.46,2.014,2.014,0,0,0-2.46,1.4Z"/><path class="b" d="M70.124,10.649a35.913,35.913,0,0,1,18.551-6.6,45.175,45.175,0,0,1,17.809,2.717,35.218,35.218,0,0,1,13.528,8.967,34.749,34.749,0,0,1,8.221,16.86,53.3,53.3,0,0,1-.474,21.147c-.537,2.511,3.319,3.584,3.857,1.064,2.878-13.469,1.769-28.948-7.154-40.033C116.384,4.738,103.382.016,90.754,0A39.789,39.789,0,0,0,68.106,7.2c-2.113,1.444-.115,4.912,2.018,3.454Z"/><path class="b" d="M111.936,28.708a60.732,60.732,0,0,0,6.4,13.36c2.575,3.729,5.915,7.8,10.131,9.726a2.061,2.061,0,0,0,2.737-.717,2.018,2.018,0,0,0-.718-2.737c-3.7-1.689-6.623-5.238-8.863-8.534a56.919,56.919,0,0,1-5.833-12.162,2.056,2.056,0,0,0-2.46-1.4,2.016,2.016,0,0,0-1.4,2.461Z"/><path class="b" d="M112.368,26.57A47.047,47.047,0,0,1,93.4,40.246q-.687.28-1.382.544a2.2,2.2,0,0,0-.6.222l-.2.073a.435.435,0,0,1,.5.358c.338.181.061.269.141-.218.048-.288.022-.629.041-.926.037-.582.09-1.163.18-1.739.158-1.011.619-2.076.325-3.1a2.287,2.287,0,0,0-2.8-1.482,5.944,5.944,0,0,0-2.236,1.733q-1.056,1.02-2.105,2.048c-1.471,1.435-2.945,2.868-4.451,4.266a61.671,61.671,0,0,1-10.97,8.423c-2.228,1.287-.217,4.745,2.019,3.454C79.322,49.6,85.23,43.25,91.419,37.367l-.882.514.253-.085-1.542-.2.216.127-.919-1.2.048.262V35.725c-.688,2.776-2.021,8.091,1.719,9.241,1.582.486,3.315-.512,4.735-1.106,1.654-.692,3.283-1.439,4.872-2.271A48.088,48.088,0,0,0,115.2,29.4a2.062,2.062,0,0,0,0-2.829,2.015,2.015,0,0,0-2.828,0Z"/></svg>