<svg width="73" height="60" viewBox="0 0 73 60" fill="none" xmlns="http://www.w3.org/2000/svg">
<path d="M63.8591 60H8.48455C3.81839 60 0 56.1816 0 51.5154V8.48455C0 3.81839 3.81839 0 8.48455 0H63.8579C68.5252 0 72.3436 3.81839 72.3436 8.48455V51.5154C72.3436 56.1816 68.5252 60 63.8591 60Z" fill="#E9EDF1"/>
<path d="M72.3436 13.3531V8.48455C72.3436 3.81726 68.5252 0 63.8591 0H8.48455C3.81839 0 0 3.81839 0 8.48455V13.3531H72.3436Z" fill="black"/>
<path d="M8.25125 8.57257C9.2988 8.57257 10.148 7.72336 10.148 6.67581C10.148 5.62826 9.2988 4.77905 8.25125 4.77905C7.2037 4.77905 6.35449 5.62826 6.35449 6.67581C6.35449 7.72336 7.2037 8.57257 8.25125 8.57257Z" fill="#FC6F58"/>
<path d="M13.6546 8.57257C14.7021 8.57257 15.5513 7.72336 15.5513 6.67581C15.5513 5.62826 14.7021 4.77905 13.6546 4.77905C12.607 4.77905 11.7578 5.62826 11.7578 6.67581C11.7578 7.72336 12.607 8.57257 13.6546 8.57257Z" fill="#49C3E8"/>
<path d="M19.0618 8.57257C20.1094 8.57257 20.9586 7.72336 20.9586 6.67581C20.9586 5.62826 20.1094 4.77905 19.0618 4.77905C18.0142 4.77905 17.165 5.62826 17.165 6.67581C17.165 7.72336 18.0142 8.57257 19.0618 8.57257Z" fill="#FFD160"/>
<path d="M64.9686 6.14478H60.6709V7.10898H64.9686V6.14478Z" fill="white"/>
<path d="M63.7063 9.52341L62.9795 8.89041L64.9079 6.67601L62.9795 4.46162L63.7063 3.82861L66.1897 6.67601L63.7063 9.52341Z" fill="white"/>
<path d="M53.5887 9.69517H29.4372C27.7767 9.69517 26.418 8.33647 26.418 6.67595C26.418 5.01544 27.7767 3.65674 29.4372 3.65674H53.5887C55.2492 3.65674 56.6079 5.01544 56.6079 6.67595C56.6079 8.33647 55.2492 9.69517 53.5887 9.69517Z" fill="white"/>
<path d="M30.0475 8.12161L29.3828 5.40308H29.9118L30.1696 6.63744C30.2374 6.96864 30.3018 7.31566 30.347 7.58469H30.3549C30.4001 7.29871 30.4759 6.97655 30.5527 6.63292L30.8466 5.40308H31.3666L31.6379 6.6544C31.7057 6.97655 31.7622 7.27949 31.8018 7.57339H31.8108C31.8583 7.27384 31.9239 6.96525 31.9951 6.63292L32.2777 5.40308H32.783L32.0516 8.12161H31.5203L31.2377 6.84204C31.1677 6.53345 31.1213 6.27459 31.0885 5.97956H31.0795C31.032 6.27007 30.98 6.53345 30.8986 6.84204L30.5844 8.12161H30.0475Z" fill="black"/>
<path d="M33.5875 8.12161L32.9229 5.40308H33.4519L33.7096 6.63744C33.7774 6.96864 33.8418 7.31566 33.8871 7.58469H33.895C33.9402 7.29871 34.0159 6.97655 34.0928 6.63292L34.3867 5.40308H34.9067L35.1779 6.6544C35.2458 6.97655 35.3023 7.27949 35.3418 7.57339H35.3509C35.3984 7.27384 35.4639 6.96525 35.5351 6.63292L35.8177 5.40308H36.323L35.5917 8.12161H35.0604L34.7778 6.84204C34.7077 6.53345 34.6614 6.27459 34.6286 5.97956H34.6195C34.5721 6.27007 34.5201 6.53345 34.4387 6.84204L34.1244 8.12161H33.5875Z" fill="black"/>
<path d="M37.1285 8.12161L36.4639 5.40308H36.9929L37.2506 6.63744C37.3184 6.96864 37.3829 7.31566 37.4281 7.58469H37.436C37.4812 7.29871 37.5569 6.97655 37.6338 6.63292L37.9277 5.40308H38.4477L38.719 6.6544C38.7868 6.97655 38.8433 7.27949 38.8829 7.57339H38.8919C38.9394 7.27384 39.0049 6.96525 39.0762 6.63292L39.3587 5.40308H39.864L39.1327 8.12161H38.6014L38.3188 6.84204C38.2487 6.53345 38.2024 6.27459 38.1696 5.97956H38.1606C38.1131 6.27007 38.0611 6.53345 37.9797 6.84204L37.6654 8.12161H37.1285Z" fill="black"/>
<path d="M39.8545 7.84586C39.8545 7.66161 39.9845 7.5271 40.162 7.5271C40.3428 7.5271 40.4694 7.65709 40.4694 7.84586C40.4694 8.02898 40.3473 8.16576 40.162 8.16576C39.9811 8.16689 39.8545 8.02898 39.8545 7.84586Z" fill="black"/>
<path d="M9.52441 36.4181L27.6815 27.9822V31.9916L13.9498 38.0063V38.082L27.6815 44.0967V48.1061L9.52441 39.6725V36.4181Z" fill="#32BEA6"/>
<path d="M30.4863 49.621L38.582 22.1948H42.4027L34.307 49.621H30.4863Z" fill="#32BEA6"/>
<path d="M62.7558 39.7845L44.5986 48.1074V44.0979L58.6333 38.0832V38.0075L44.5986 31.9928V27.9834L62.7558 36.3063V39.7845Z" fill="#32BEA6"/>
</svg>
