<svg width="70" height="60" viewBox="0 0 70 60" fill="none" xmlns="http://www.w3.org/2000/svg">
<path d="M60.2128 6.38281H50.3191C49.7904 6.38281 49.3617 6.81148 49.3617 7.34023C49.3617 7.86898 49.7904 8.29766 50.3191 8.29766H60.2128C61.7967 8.29766 63.0852 9.58613 63.0852 11.17V40.8509H6.91484V11.17C6.91484 9.58613 8.20332 8.29766 9.78723 8.29766H19.6809C20.2096 8.29766 20.6383 7.86898 20.6383 7.34023C20.6383 6.81148 20.2096 6.38281 19.6809 6.38281H9.78723C7.14746 6.38281 5 8.53027 5 11.17V45.6382C5 48.2779 7.14746 50.4254 9.78723 50.4254H39.7872V55.2126C39.7872 56.2896 40.1448 57.2843 40.7472 58.085H29.2528C29.8552 57.2844 30.2128 56.2896 30.2128 55.2126V53.2978C30.2128 52.769 29.7841 52.3404 29.2554 52.3404C28.7266 52.3404 28.2979 52.769 28.2979 53.2978V55.2126C28.2979 56.7965 27.0095 58.085 25.4255 58.085H16.4892C15.9604 58.085 15.5318 58.5137 15.5318 59.0424C15.5318 59.5712 15.9604 59.9998 16.4892 59.9998H53.5105C54.0392 59.9998 54.4679 59.5712 54.4679 59.0424C54.4679 58.5137 54.0392 58.085 53.5105 58.085H44.5745C42.9905 58.085 41.7021 56.7965 41.7021 55.2126V50.4254H60.2127C62.8524 50.4254 64.9999 48.2779 64.9999 45.6382V11.17C65 8.53027 62.8525 6.38281 60.2128 6.38281ZM60.2128 48.5104H9.78723C8.20332 48.5104 6.91484 47.222 6.91484 45.6381V42.7657H63.0852V45.6381C63.0852 47.2221 61.7967 48.5104 60.2128 48.5104Z" fill="black"/>
<path d="M27.34 38.9361H42.6591C45.2988 38.9361 47.4463 36.7887 47.4463 34.1489V4.78723C47.4464 2.14746 45.2989 0 42.6592 0H27.34C24.7002 0 22.5527 2.14746 22.5527 4.78723V34.1489C22.5527 36.7887 24.7002 38.9361 27.34 38.9361ZM42.6592 37.0213H27.34C25.7561 37.0213 24.4676 35.7328 24.4676 34.1489V32.5532H45.5314V34.1489C45.5314 35.7328 44.243 37.0213 42.6592 37.0213ZM27.34 1.91484H42.6591C44.243 1.91484 45.5314 3.20332 45.5314 4.78723V6.38297H31.1698C30.641 6.38297 30.2123 6.81164 30.2123 7.34039C30.2123 7.86914 30.641 8.29781 31.1698 8.29781H45.5314V30.6382H24.4677V8.29793H27.3401C27.8688 8.29793 28.2975 7.86926 28.2975 7.34051C28.2975 6.81176 27.8688 6.38309 27.3401 6.38309H24.4677V4.78723C24.4677 3.20332 25.7562 1.91484 27.34 1.91484Z" fill="black"/>
<path fill-rule="evenodd" clip-rule="evenodd" d="M7.5 1.25H68.75V8.75H7.5V1.25Z" fill="#3E4F59"/>
<path fill-rule="evenodd" clip-rule="evenodd" d="M7.5 8.75H68.75V58.75H7.5V8.75Z" fill="#ACBEC2"/>
<path fill-rule="evenodd" clip-rule="evenodd" d="M7.5 8.75V58.75H44.7119C51.931 52.2349 57.9686 44.0502 62.0987 35.1801C66.2288 26.31 68.2757 17.1321 67.9932 8.75H7.5Z" fill="#E8EDEE"/>
<path fill-rule="evenodd" clip-rule="evenodd" d="M10 0C7.94374 0 6.25 1.69375 6.25 3.75V53.75C6.25 54.4404 6.80965 55 7.5 55C8.19035 55 8.75 54.4404 8.75 53.75V3.75C8.75 3.04484 9.29484 2.5 10 2.5H66.25C66.9552 2.5 67.5 3.04484 67.5 3.75V7.5H15C14.3097 7.5 13.75 8.05965 13.75 8.75C13.75 9.44036 14.3097 10 15 10H67.5V56.25C67.5 56.9552 66.9552 57.5 66.25 57.5H5C4.30965 57.5 3.75 58.0597 3.75 58.75C3.75 59.4404 4.30965 60 5 60H66.25C68.3063 60 70 58.3063 70 56.25C70 38.75 70 21.25 70 3.75C70 1.69375 68.3063 0 66.25 0H10Z" fill="black"/>
<path fill-rule="evenodd" clip-rule="evenodd" d="M63.75 3.75C63.0597 3.75 62.5 4.30965 62.5 5C62.5 5.69036 63.0597 6.25 63.75 6.25C64.4404 6.25 65 5.69036 65 5C65 4.30965 64.4404 3.75 63.75 3.75Z" fill="#ED7161"/>
<path fill-rule="evenodd" clip-rule="evenodd" d="M58.75 3.75C58.0597 3.75 57.5 4.30965 57.5 5C57.5 5.69036 58.0597 6.25 58.75 6.25C59.4404 6.25 60 5.69036 60 5C60 4.30965 59.4404 3.75 58.75 3.75Z" fill="#ECBA16"/>
<path fill-rule="evenodd" clip-rule="evenodd" d="M53.75 3.75C53.0597 3.75 52.5 4.30965 52.5 5C52.5 5.69036 53.0597 6.25 53.75 6.25C54.4404 6.25 55 5.69036 55 5C55 4.30965 54.4404 3.75 53.75 3.75Z" fill="#42B05C"/>
<path fill-rule="evenodd" clip-rule="evenodd" d="M1.25 57.5C0.918479 57.5 0.600555 57.6317 0.366135 57.8661C0.131714 58.1005 0 58.4185 0 58.75C0 59.0815 0.131714 59.3995 0.366135 59.6339C0.600555 59.8683 0.918479 60 1.25 60C1.58152 60 1.89944 59.8683 2.13387 59.6339C2.36829 59.3995 2.5 59.0815 2.5 58.75C2.5 58.4185 2.36829 58.1005 2.13387 57.8661C1.89944 57.6317 1.58152 57.5 1.25 57.5Z" fill="black"/>
<path fill-rule="evenodd" clip-rule="evenodd" d="M11.25 7.5C10.5597 7.5 10 8.05965 10 8.75C10 9.44036 10.5597 10 11.25 10C11.9404 10 12.5 9.44036 12.5 8.75C12.5 8.05965 11.9404 7.5 11.25 7.5Z" fill="black"/>
<path d="M53.75 20H22.5C21.1193 20 20 21.1193 20 22.5V45C20 46.3807 21.1193 47.5 22.5 47.5H53.75C55.1307 47.5 56.25 46.3807 56.25 45V22.5C56.25 21.1193 55.1307 20 53.75 20Z" fill="#0075D3"/>
<path d="M56.25 20H20V27.5H56.25V20Z" fill="#FE73C5"/>
<path fill-rule="evenodd" clip-rule="evenodd" d="M22.5 20C21.115 20 20 21.115 20 22.5V45C20 46.385 21.115 47.5 22.5 47.5H46.98C50.7172 43.7959 52.7724 39.083 52.7759 34.209C52.7742 28.908 50.3464 23.8142 46.0034 20H22.5Z" fill="#0588E2"/>
<path fill-rule="evenodd" clip-rule="evenodd" d="M20 20V27.5H50.7373C50.8233 27.0853 50.869 26.6679 50.874 26.25C50.8735 24.0041 49.7009 21.816 47.5244 20H20Z" fill="#FE93D3"/>
<path fill-rule="evenodd" clip-rule="evenodd" d="M22.5 18.75C20.4441 18.75 18.75 20.4441 18.75 22.5C18.75 24.5288 18.75 26.5576 18.75 28.5864C18.75 29.2768 19.3097 29.8364 20 29.8364C20.6904 29.8364 21.25 29.2768 21.25 28.5864V27.5H55V40.0342C55 40.7245 55.5597 41.2842 56.25 41.2842C56.9403 41.2842 57.5 40.7245 57.5 40.0342C57.5 34.1895 57.5 28.3447 57.5 22.5C57.5 20.4441 55.8059 18.75 53.75 18.75H22.5ZM22.5 21.25H53.75C54.4641 21.25 55 21.7859 55 22.5V25H21.25V22.5C21.25 21.7859 21.7859 21.25 22.5 21.25ZM20 32.5C19.3097 32.5 18.75 33.0597 18.75 33.75V45C18.75 47.0559 20.4441 48.75 22.5 48.75H53.75C55.8059 48.75 57.5 47.0559 57.5 45C57.5 44.3097 56.9403 43.75 56.25 43.75C55.5597 43.75 55 44.3097 55 45C55 45.7141 54.4641 46.25 53.75 46.25H22.5C21.7859 46.25 21.25 45.7141 21.25 45V33.75C21.25 33.0597 20.6904 32.5 20 32.5Z" fill="black"/>
<path fill-rule="evenodd" clip-rule="evenodd" d="M32.031 30.2733C31.9028 30.1706 31.7556 30.0943 31.5979 30.0485C31.4401 30.0027 31.2749 29.9885 31.1117 30.0067C30.9484 30.0248 30.7903 30.0749 30.6465 30.1542C30.5026 30.2335 30.3758 30.3403 30.2732 30.4686L25.2732 36.7186C25.0957 36.9403 24.999 37.2159 24.999 37.4999C24.999 37.7839 25.0957 38.0594 25.2732 38.2811L30.2732 44.5311C30.3758 44.6594 30.5026 44.7663 30.6465 44.8456C30.7903 44.9248 30.9484 44.9749 31.1117 44.9931C31.2749 45.0112 31.4401 44.997 31.5979 44.9513C31.7556 44.9055 31.9028 44.8291 32.031 44.7264C32.1593 44.6239 32.2662 44.4971 32.3454 44.3532C32.4247 44.2093 32.4749 44.0513 32.493 43.888C32.5111 43.7248 32.4969 43.5595 32.4512 43.4018C32.4054 43.244 32.329 43.0968 32.2263 42.9686L27.8513 37.4999L32.2263 32.0311C32.329 31.9029 32.4054 31.7557 32.4512 31.598C32.4969 31.4402 32.5111 31.275 32.493 31.1117C32.4749 30.9485 32.4247 30.7904 32.3454 30.6466C32.2662 30.5027 32.1593 30.3759 32.031 30.2733Z" fill="black"/>
<path fill-rule="evenodd" clip-rule="evenodd" d="M44.2186 30.2733C44.0903 30.3759 43.9835 30.5027 43.9042 30.6466C43.825 30.7904 43.7748 30.9485 43.7567 31.1117C43.7385 31.275 43.7527 31.4402 43.7985 31.598C43.8442 31.7557 43.9206 31.9029 44.0233 32.0311L48.3983 37.4999L44.0233 42.9686C43.9206 43.0968 43.8442 43.244 43.7985 43.4018C43.7527 43.5595 43.7385 43.7248 43.7567 43.888C43.7748 44.0513 43.825 44.2093 43.9042 44.3532C43.9835 44.4971 44.0903 44.6239 44.2186 44.7264C44.3468 44.8291 44.494 44.9055 44.6518 44.9513C44.8095 44.997 44.9748 45.0112 45.138 44.9931C45.3013 44.9749 45.4594 44.9248 45.6032 44.8456C45.7471 44.7663 45.8739 44.6594 45.9764 44.5311L50.9764 38.2811C51.1539 38.0594 51.2506 37.7839 51.2506 37.4999C51.2506 37.2159 51.1539 36.9403 50.9764 36.7186L45.9764 30.4686C45.8739 30.3403 45.7471 30.2335 45.6032 30.1542C45.4594 30.0749 45.3013 30.0248 45.138 30.0067C44.9748 29.9885 44.8095 30.0027 44.6518 30.0485C44.494 30.0943 44.3468 30.1706 44.2186 30.2733Z" fill="black"/>
<path fill-rule="evenodd" clip-rule="evenodd" d="M40.8104 28.8306C40.5005 28.9469 40.2494 29.1813 40.1122 29.4825L33.8622 43.2325C33.7249 43.5342 33.7131 43.8781 33.8294 44.1885C33.9457 44.4989 34.1806 44.7504 34.4823 44.8877C34.784 45.025 35.1279 45.0368 35.4383 44.9205C35.7487 44.8042 36.0003 44.5693 36.1376 44.2676L42.3876 30.5176C42.5248 30.2159 42.5366 29.872 42.4203 29.5616C42.304 29.2511 42.0692 28.9996 41.7674 28.8623C41.6178 28.7944 41.4563 28.7566 41.2921 28.7512C41.1279 28.7457 40.9642 28.7727 40.8104 28.8306Z" fill="black"/>
</svg>
