<svg width="60" height="60" viewBox="0 0 60 60" fill="none" xmlns="http://www.w3.org/2000/svg">
<path d="M60 9.13051V13.0435H0V9.13051C0 6.2491 2.3359 3.91309 5.21742 3.91309H54.7827C57.664 3.91309 60 6.24899 60 9.13051Z" fill="#A5A5A5"/>
<path d="M46.6304 7.761V7.89143C46.6304 8.43166 46.1923 8.86971 45.6521 8.86971C45.1119 8.86971 44.6738 8.43166 44.6738 7.89143V7.761C44.6738 7.22076 45.1119 6.78271 45.6521 6.78271C46.1923 6.78271 46.6304 7.22064 46.6304 7.761ZM49.5652 6.78271C49.025 6.78271 48.587 7.22076 48.587 7.761V7.89143C48.587 8.43166 49.025 8.86971 49.5652 8.86971C50.1055 8.86971 50.5435 8.43166 50.5435 7.89143V7.761C50.5434 7.22064 50.1055 6.78271 49.5652 6.78271ZM53.4782 6.78271C52.938 6.78271 52.5 7.22076 52.5 7.761V7.89143C52.5 8.43166 52.938 8.86971 53.4782 8.86971C54.0185 8.86971 54.4565 8.43166 54.4565 7.89143V7.761C54.4565 7.22064 54.0185 6.78271 53.4782 6.78271Z" fill="#777777"/>
<path d="M60 11.7391V48.2609C60 51.1423 57.6641 53.4783 54.7826 53.4783H5.21742C2.3359 53.4783 0 51.1424 0 48.261V11.7391H7.82613V2.60871C7.82613 1.16789 8.99402 0 10.4348 0H20.8696C22.3104 0 23.4783 1.16789 23.4783 2.60871V11.7391H60Z" fill="#E9F2F4"/>
<path d="M53.478 30.6524V45.0003C53.478 46.4411 52.3102 47.609 50.8693 47.609H9.1302C7.68938 47.609 6.52148 46.4411 6.52148 45.0003V30.6524C6.52148 29.2116 7.68938 28.0437 9.1302 28.0437H50.8693C52.3102 28.0437 53.478 29.2116 53.478 30.6524ZM9.1302 22.8263H20.8693C22.3102 22.8263 23.478 21.6584 23.478 20.2176C23.478 18.7768 22.3102 17.6089 20.8693 17.6089H9.1302C7.68938 17.6089 6.52148 18.7768 6.52148 20.2176C6.52148 21.6584 7.68938 22.8263 9.1302 22.8263ZM50.8693 17.6089H29.9998C28.5589 17.6089 27.3911 18.7768 27.3911 20.2176C27.3911 21.6584 28.5589 22.8263 29.9998 22.8263H50.8693C52.3102 22.8263 53.478 21.6584 53.478 20.2176C53.478 18.7769 52.3102 17.6089 50.8693 17.6089Z" fill="#CFDFE2"/>
<path d="M23.4783 2.60871V11.7391H7.82617V2.60871C7.82617 1.16789 8.99406 0 10.4349 0H20.8696C22.3104 0.000117188 23.4783 1.16801 23.4783 2.60871Z" fill="#C3E4ED"/>
<path d="M20.8693 4.56504V7.17375C20.8693 7.8941 20.2854 8.47805 19.565 8.47805H11.7389C11.0185 8.47805 10.4346 7.8941 10.4346 7.17375V4.56504C10.4346 3.84469 11.0185 3.26074 11.7389 3.26074H19.565C20.2854 3.26074 20.8693 3.84469 20.8693 4.56504Z" fill="#B2D1D8"/>
<path d="M50.8313 52.6123C49.8897 54.2431 47.8044 54.802 46.1735 53.8604L44.6823 52.9994C43.737 53.8085 42.6422 54.4477 41.4451 54.8709V56.5903C41.4451 58.4733 39.9185 59.9999 38.0355 59.9999C36.1524 59.9999 34.6258 58.4733 34.6258 56.5903V54.8709C33.4288 54.4477 32.3341 53.8085 31.3886 52.9994L29.8974 53.8604C28.2666 54.802 26.1811 54.2432 25.2396 52.6123C24.298 50.9815 24.8568 48.8962 26.4877 47.9546L27.9775 47.0946C27.8655 46.4883 27.8064 45.8634 27.8064 45.2248C27.8064 44.586 27.8655 43.9613 27.9775 43.3551L26.4877 42.4951C24.8569 41.5535 24.298 39.4682 25.2396 37.8373C26.1812 36.2065 28.2665 35.6477 29.8974 36.5893L31.3886 37.4503C32.3339 36.6412 33.4287 36.0019 34.6258 35.5788V33.8594C34.6258 31.9763 36.1524 30.4497 38.0355 30.4497C39.9185 30.4497 41.4451 31.9763 41.4451 33.8594V35.5788C42.6421 36.0019 43.7369 36.6412 44.6823 37.4503L46.1735 36.5893C47.8043 35.6477 49.8898 36.2064 50.8313 37.8373C51.7729 39.4681 51.2141 41.5536 49.5832 42.4951L48.0934 43.3551C48.2055 43.9613 48.2645 44.5863 48.2645 45.2248C48.2645 45.8636 48.2055 46.4883 48.0934 47.0946L49.5832 47.9546C51.214 48.8962 51.7728 50.9815 50.8313 52.6123Z" fill="#A5A5A5"/>
<path d="M44.8546 45.2246C44.8546 48.9908 41.8015 52.044 38.0352 52.044C34.269 52.044 31.2158 48.9909 31.2158 45.2246C31.2158 41.4585 34.2689 38.4053 38.0352 38.4053C41.8015 38.4053 44.8546 41.4584 44.8546 45.2246Z" fill="#CCCAC4"/>
<path d="M41.4454 45.2246C41.4454 47.1077 39.9188 48.6343 38.0357 48.6343C36.1526 48.6343 34.626 47.1077 34.626 45.2246C34.626 43.3415 36.1526 41.8149 38.0357 41.8149C39.9188 41.8149 41.4454 43.3415 41.4454 45.2246Z" fill="white"/>
</svg>
