<svg width="516" height="548" viewBox="0 0 516 548" fill="none" xmlns="http://www.w3.org/2000/svg">
<path d="M501.635 255.167C466.998 307.025 393.085 467.409 411.266 526.931L146.096 526.992C146.096 526.992 107.779 498.464 70.556 448.864C63.7913 439.853 57.0636 430.137 50.6149 419.777C43.7656 408.798 37.2308 397.091 31.2925 384.702C14.0342 348.777 1.71988 307.146 1.22132 261.129C-0.51624 101.839 137.352 -46.2052 324.904 13.5351C512.455 73.2754 536.259 203.309 501.635 255.167Z" fill="#EAF9F8" fill-opacity="0.1"/>
<path d="M335.724 528.81C335.191 528.81 334.663 528.577 334.304 528.13L192.892 352.306C192.262 351.522 192.386 350.375 193.17 349.743C193.953 349.114 195.1 349.239 195.731 350.021L337.143 525.845C337.773 526.628 337.649 527.775 336.865 528.408C336.528 528.678 336.125 528.81 335.724 528.81Z" fill="#AACE88"/>
<path d="M116.366 528.81C115.965 528.81 115.561 528.678 115.225 528.408C114.441 527.777 114.317 526.63 114.947 525.845L256.359 350.021C256.992 349.239 258.136 349.114 258.92 349.743C259.703 350.374 259.828 351.521 259.197 352.306L117.786 528.13C117.427 528.577 116.898 528.81 116.366 528.81Z" fill="#AACE88"/>
<path d="M257.78 528.81C257.247 528.81 256.719 528.577 256.359 528.13L114.947 352.306C114.317 351.522 114.441 350.375 115.225 349.743C116.01 349.114 117.155 349.239 117.786 350.021L259.197 525.845C259.828 526.628 259.703 527.775 258.92 528.408C258.584 528.678 258.181 528.81 257.78 528.81Z" fill="#AACE88"/>
<path d="M141.425 355.832H75.7267C73.1493 355.832 71.0586 353.742 71.0586 351.163C71.0586 348.586 73.1478 346.495 75.7267 346.495H141.425C144.002 346.495 146.093 348.585 146.093 351.163C146.093 353.741 144.002 355.832 141.425 355.832Z" fill="#AACE88"/>
<path d="M330.455 355.831H142.68C140.103 355.831 138.014 353.742 138.014 351.163C138.014 348.586 140.103 346.495 142.68 346.495H330.455V355.831Z" fill="#AACE88"/>
<path d="M192.171 439.075C192.171 441.892 189.889 444.174 187.073 444.174C184.257 444.174 181.975 441.892 181.975 439.075C181.975 436.259 184.257 433.977 187.073 433.977C189.889 433.977 192.171 436.259 192.171 439.075Z" fill="#AACE88"/>
<path d="M270.115 439.075C270.115 441.892 267.833 444.174 265.016 444.174C262.2 444.174 259.918 441.892 259.918 439.075C259.918 436.259 262.2 433.977 265.016 433.977C267.831 433.977 270.115 436.259 270.115 439.075Z" fill="#FFC947"/>
<path d="M202.273 207.139H136.085C132.817 207.139 130.168 204.488 130.168 201.221V151.997C130.168 148.728 132.817 146.079 136.085 146.079H202.273C205.542 146.079 208.19 148.729 208.19 151.997V201.221C208.19 204.488 205.542 207.139 202.273 207.139Z" fill="#353237"/>
<path d="M186.111 173.042H183.661C183.285 171.703 182.73 170.435 182.008 169.273L183.898 167.382C184.619 166.661 184.619 165.494 183.898 164.772L181.238 162.112C180.517 161.391 179.349 161.391 178.628 162.112L176.619 164.121C175.509 163.496 174.319 163.005 173.062 162.688V159.675C173.062 158.656 172.235 157.831 171.217 157.831H167.456C166.437 157.831 165.612 158.658 165.612 159.675V162.722C164.392 163.036 163.236 163.498 162.159 164.093L159.954 161.888C159.233 161.167 158.065 161.167 157.344 161.888L154.683 164.548C153.962 165.269 153.962 166.437 154.683 167.158L156.725 169.2C156.042 170.286 155.505 171.472 155.119 172.724H152.247C151.227 172.724 150.402 173.551 150.402 174.569V178.33C150.402 179.349 151.229 180.174 152.247 180.174H154.763C155.047 181.565 155.525 182.89 156.177 184.114L154.459 185.832C153.738 186.553 153.738 187.721 154.459 188.441L157.12 191.101C157.841 191.823 159.009 191.823 159.73 191.101L161.224 189.607C162.469 190.419 163.84 191.044 165.296 191.449V193.536C165.296 194.556 166.122 195.381 167.14 195.381H170.901C171.921 195.381 172.746 194.554 172.746 193.536V191.588C174.253 191.233 175.673 190.659 176.966 189.886L178.404 191.324C179.125 192.045 180.293 192.045 181.014 191.324L183.674 188.663C184.395 187.942 184.395 186.775 183.674 186.055L182.198 184.578C182.929 183.32 183.481 181.948 183.82 180.489H186.111C187.13 180.489 187.955 179.663 187.955 178.645V174.883C187.955 173.868 187.13 173.042 186.111 173.042ZM171.189 186.42C164.508 187.684 158.767 181.943 160.031 175.262C160.737 171.528 163.746 168.519 167.48 167.813C174.161 166.549 179.902 172.289 178.638 178.971C177.932 182.704 174.923 185.715 171.189 186.42Z" fill="white"/>
<path d="M301.921 173.408H235.734C232.467 173.408 229.816 170.76 229.816 167.491V118.268C229.816 115 232.467 112.35 235.734 112.35H301.921C305.19 112.35 307.839 115 307.839 118.268V167.491C307.839 170.76 305.189 173.408 301.921 173.408Z" fill="#AACE88"/>
<path d="M255.653 153.143C255.187 153.143 254.721 152.953 254.365 152.571L246.142 143.771C245.429 143.009 245.429 141.775 246.142 141.014L254.504 132.065C255.217 131.304 256.37 131.304 257.08 132.065C257.793 132.826 257.793 134.061 257.08 134.822L250.005 142.392L256.941 149.816C257.653 150.577 257.653 151.812 256.941 152.573C256.585 152.951 256.119 153.143 255.653 153.143Z" fill="white"/>
<path d="M281.999 153.142C281.533 153.142 281.067 152.952 280.711 152.571C279.999 151.81 279.999 150.575 280.711 149.814L287.648 142.391L280.571 134.82C279.859 134.059 279.859 132.824 280.571 132.063C281.282 131.302 282.435 131.302 283.147 132.063L291.512 141.012C291.853 141.377 292.046 141.873 292.046 142.391C292.046 142.908 291.854 143.404 291.512 143.769L283.287 152.57C282.931 152.951 282.465 153.142 281.999 153.142Z" fill="white"/>
<path d="M264.743 155.56C264.516 155.56 264.283 155.514 264.058 155.414C263.126 155.009 262.678 153.871 263.056 152.874L271.219 131.413C271.599 130.418 272.655 129.934 273.593 130.342C274.525 130.747 274.973 131.885 274.594 132.882L266.432 154.343C266.144 155.101 265.463 155.56 264.743 155.56Z" fill="white"/>
<path d="M361.668 185.141H197.441V180.1C197.441 178.74 198.544 177.637 199.903 177.637H359.204C360.564 177.637 361.667 178.74 361.667 180.1L361.668 185.141Z" fill="white"/>
<path d="M357.082 272.696H202.028C199.495 272.696 197.443 270.642 197.443 268.111V185.143H361.669V268.111C361.669 270.642 359.615 272.696 357.082 272.696Z" fill="#383873"/>
<path d="M353.785 181.39C353.785 182.028 353.269 182.544 352.631 182.544C351.993 182.544 351.477 182.028 351.477 181.39C351.477 180.752 351.993 180.236 352.631 180.236C353.269 180.236 353.785 180.752 353.785 181.39Z" fill="#AACE88"/>
<path d="M345.85 181.39C345.85 182.028 345.333 182.544 344.695 182.544C344.057 182.544 343.541 182.028 343.541 181.39C343.541 180.752 344.057 180.236 344.695 180.236C345.333 180.236 345.85 180.752 345.85 181.39Z" fill="#AACE88"/>
<path d="M337.912 181.39C337.912 182.028 337.396 182.544 336.758 182.544C336.12 182.544 335.604 182.028 335.604 181.39C335.604 180.752 336.12 180.236 336.758 180.236C337.396 180.236 337.912 180.752 337.912 181.39Z" fill="#AACE88"/>
<path d="M297.149 196.973H205.955C205.078 196.973 204.367 196.262 204.367 195.385C204.367 194.508 205.078 193.798 205.955 193.798H297.149C298.026 193.798 298.737 194.508 298.737 195.385C298.736 196.262 298.025 196.973 297.149 196.973Z" fill="#353237"/>
<path d="M297.149 207.075H205.955C205.078 207.075 204.367 206.364 204.367 205.487C204.367 204.61 205.078 203.9 205.955 203.9H297.149C298.026 203.9 298.737 204.61 298.737 205.487C298.736 206.364 298.025 207.075 297.149 207.075Z" fill="#353237"/>
<path d="M253.644 217.176H205.955C205.078 217.176 204.367 216.465 204.367 215.588C204.367 214.711 205.078 214 205.955 214H253.644C254.52 214 255.231 214.711 255.231 215.588C255.231 216.465 254.52 217.176 253.644 217.176Z" fill="#353237"/>
<path d="M297.149 237.376H205.955C205.078 237.376 204.367 236.666 204.367 235.789C204.367 234.912 205.078 234.201 205.955 234.201H297.149C298.026 234.201 298.737 234.912 298.737 235.789C298.736 236.666 298.025 237.376 297.149 237.376Z" fill="#AACE88"/>
<path d="M253.644 247.477H205.955C205.078 247.477 204.367 246.766 204.367 245.889C204.367 245.012 205.078 244.301 205.955 244.301H253.644C254.52 244.301 255.231 245.012 255.231 245.889C255.231 246.766 254.52 247.477 253.644 247.477Z" fill="#AACE88"/>
<path d="M253.644 257.577H205.955C205.078 257.577 204.367 256.866 204.367 255.989C204.367 255.112 205.078 254.401 205.955 254.401H253.644C254.52 254.401 255.231 255.112 255.231 255.989C255.231 256.866 254.52 257.577 253.644 257.577Z" fill="#353237"/>
<path d="M297.149 217.176H262.879C262.002 217.176 261.291 216.465 261.291 215.588C261.291 214.711 262.002 214 262.879 214H297.149C298.026 214 298.737 214.711 298.737 215.588C298.735 216.465 298.025 217.176 297.149 217.176Z" fill="white"/>
<path d="M342.417 194.494L318.185 218.726C317.565 219.346 316.56 219.346 315.94 218.726C315.32 218.106 315.32 217.101 315.94 216.481L340.172 192.249C340.792 191.629 341.797 191.629 342.417 192.249C343.037 192.869 343.037 193.874 342.417 194.494Z" fill="#AACE88"/>
<path d="M343.072 243.64C344.893 235.961 340.144 228.26 332.465 226.44C324.787 224.619 317.086 229.368 315.265 237.047C313.445 244.725 318.194 252.426 325.872 254.246C333.551 256.067 341.251 251.318 343.072 243.64Z" fill="#AACE88"/>
<path d="M327.309 250.293C327.309 254.76 323.687 258.382 319.219 258.382C314.751 258.382 311.129 254.76 311.129 250.293C311.129 245.825 314.751 242.203 319.219 242.203C323.688 242.203 327.309 245.825 327.309 250.293Z" fill="#353237"/>
<path d="M197.441 263.836V292.726L223.994 266.173" fill="#383873"/>
<path d="M169.18 300.537H227.438L248.505 341.084H190.247L169.18 300.537Z" fill="#86BFBC"/>
<path d="M191.424 338.085L173.98 304.512C173.614 303.808 174.126 302.967 174.918 302.967H225.318C225.712 302.967 226.074 303.187 226.255 303.537L243.699 337.11C244.066 337.813 243.554 338.655 242.761 338.655H192.362C191.969 338.655 191.607 338.435 191.424 338.085Z" fill="white"/>
<path d="M237.43 341.083H190.246V346.496H237.43V341.083Z" fill="#B8E3E2"/>
<path d="M277.969 341.083H231.408C229.913 341.083 228.701 342.294 228.701 343.79C228.701 345.284 229.913 346.496 231.408 346.496H277.969C279.463 346.496 280.675 345.286 280.675 343.79C280.675 342.296 279.463 341.083 277.969 341.083Z" fill="#9FCCC9"/>
<path d="M190.247 341.084L169.179 300.537L168.124 301.329C167.442 301.841 167.232 302.771 167.63 303.527L190.248 346.497V341.084H190.247Z" fill="#B8E3E2"/>
<path d="M211.457 343.609H206.262V344.51H211.457V343.609Z" fill="#9FCCC9"/>
<path d="M217.988 343.609H212.793V344.51H217.988V343.609Z" fill="#9FCCC9"/>
<path d="M224.517 343.609H219.322V344.51H224.517V343.609Z" fill="#9FCCC9"/>
<path d="M296.461 420.446C296.461 420.446 248.137 458.07 240.473 467.628C237.583 471.248 232.542 477.588 227.321 484.084C218.746 494.759 209.65 505.884 208.57 506.152C206.845 506.589 192.344 495.55 191.906 493.17C191.639 491.687 204.841 469.026 216.269 450.808C223.228 439.731 229.52 430.284 231.729 428.243C237.571 422.827 273.52 403.784 273.52 403.784L296.461 420.446Z" fill="#383873"/>
<path opacity="0.15" d="M204.242 498.124C204.242 498.124 249.388 433.866 272.052 423.042" stroke="black" stroke-width="0.8185" stroke-miterlimit="10" stroke-linecap="round"/>
<path d="M346.824 255.446C346.314 256.612 345.731 257.826 345.075 259.065C341.541 265.818 344.152 272.583 340.121 274.307C339.877 274.405 339.61 274.501 339.307 274.562C334.11 275.715 322.135 268.793 321.613 265.331C321.09 261.87 325.304 255.943 321.613 255.226C317.921 254.51 315.93 260.717 315.93 260.717C312.894 261.033 311.812 255.943 306.834 255.943C306.129 255.943 305.438 256.041 304.77 256.21C302.425 256.793 300.373 258.239 299.062 259.356C298.09 260.169 297.532 260.813 297.532 260.813C297.532 260.813 293.1 258.007 293.306 252.481C293.657 243.725 296.888 237.337 304.673 236.038C305.536 226.298 313.551 221.1 324.263 220.772C333.651 220.481 335.059 228.921 335.279 231.022C335.194 229.455 334.756 224.307 332.522 220.772C337.221 220.566 341.364 223.918 340.282 234.848C341.364 231.594 345.152 229.54 348.068 231.92C345.372 231.92 342.772 236.462 342.772 236.462C342.772 236.462 345.942 238.49 348.103 242.243C349.897 245.343 349.218 249.92 346.824 255.446Z" fill="#382424"/>
<path d="M340.119 274.307L339.998 275.909L339.585 281.592C339.585 281.592 330.939 288.989 326.032 281.592C325.995 281.543 325.971 281.495 325.922 281.447C324.404 279.189 323.032 278.399 321.781 278.252C319.073 277.924 316.887 280.572 314.627 277.706C308.167 269.508 305.591 260.012 304.766 256.21C305.433 256.039 306.126 255.943 306.83 255.943C311.809 255.943 312.89 261.031 315.925 260.716C315.925 260.716 317.917 254.511 321.609 255.226C325.3 255.943 321.086 261.869 321.609 265.331C321.84 266.874 324.354 269.109 327.535 271.002C331.239 273.225 335.855 274.986 338.781 274.645C338.963 274.621 339.133 274.596 339.303 274.561C339.609 274.501 339.876 274.405 340.119 274.307Z" fill="#FFAD94"/>
<path opacity="0.25" d="M341.47 284.885C337.571 287.544 330.43 287.982 330.43 287.982L324.588 287.12C324.588 287.12 322.147 283.573 323.288 281.594C323.506 281.205 324.054 280.671 324.831 280.039C326.398 278.751 328.924 277.099 331.535 275.74C334.231 274.344 337.012 273.238 339.017 273.117C343.922 272.838 345.368 282.214 341.47 284.885Z" fill="black"/>
<path d="M340.315 379.615C331.62 381.291 313.221 376.166 304.416 372.207C301.817 371.04 300.043 369.972 299.618 369.22C297.93 366.245 299.63 363.961 303.82 354.512C304.294 353.444 304.792 352.289 305.327 351.038C308.168 344.346 308.18 330.076 308.168 317.774C308.131 307.245 308.084 298.161 309.759 296.545C313.39 293.048 331.51 281.595 331.51 281.595L335.117 300.396C335.117 300.396 337.158 309.941 339.308 322.402C343.267 345.342 347.614 378.206 340.315 379.615Z" fill="#353237"/>
<path d="M346.375 387.983C346.375 388.845 337.716 409.041 330.454 411.932C323.192 414.822 279.422 411.641 279.422 411.641L257.78 425.789L262.311 468.418L265.468 498.124L265.565 499.084C258.945 503.408 242.272 504.573 240.473 500.845C240.461 500.833 240.461 500.822 240.461 500.822C238.725 497.069 212.177 417.132 222.572 403.275C232.956 389.429 299.618 369.221 299.618 369.221C301.354 370.327 303.371 371.322 305.569 372.208C312.977 375.244 322.389 377.151 329.555 378.268C332.312 378.692 334.729 379.009 336.575 379.228C338.907 379.507 340.315 379.617 340.315 379.617C340.315 379.617 346.375 387.107 346.375 387.983Z" fill="#383873"/>
<path d="M268.309 526.931H212.03C211.752 525.936 212.127 524.927 212.977 523.907C215.261 521.162 220.981 518.405 226.495 516.025C231.73 513.767 236.757 511.823 238.446 510.488C242.416 507.342 240.582 501.221 240.474 500.844C241.081 502.095 243.376 502.8 246.412 503.006C252.376 503.43 261.181 501.95 265.564 499.083L265.467 498.123C267.143 501.329 267.932 517.178 268.201 523.906C268.272 525.765 268.309 526.931 268.309 526.931Z" fill="#0C2059"/>
<path d="M246.41 503.006C246.239 505.691 245.852 510.038 245.074 511.205C243.921 512.942 231.509 519.002 229.783 518.419C228.666 518.055 227.305 516.84 226.492 516.027C231.727 513.769 236.754 511.825 238.443 510.489C242.414 507.344 240.58 501.223 240.471 500.846C241.078 502.095 243.374 502.8 246.41 503.006Z" fill="#2E4780"/>
<path d="M268.309 526.931H212.03C211.752 525.936 212.127 524.927 212.977 523.907H268.199C268.272 525.765 268.309 526.931 268.309 526.931Z" fill="#2E4780"/>
<path d="M208.569 506.152C208.569 506.152 204.294 517.423 200.59 523.385C199.121 525.765 197.723 527.308 196.74 526.931C193.278 525.631 158.496 496.059 161.824 493.897C162.309 493.581 163.087 493.363 164.058 493.241C167.082 492.852 172.098 493.277 176.738 493.751C180.722 494.164 184.425 494.614 186.356 494.614C191.263 494.614 191.905 493.168 191.905 493.168C192.015 493.74 192.938 494.82 194.309 496.131C198.609 500.212 207.257 506.48 208.569 506.152Z" fill="#0C2059"/>
<path d="M194.311 496.132C186.94 501.013 179.252 498.074 177.734 496.957C176.617 496.144 176.617 494.624 176.738 493.75C180.723 494.163 184.426 494.612 186.357 494.612C191.264 494.612 191.906 493.167 191.906 493.167C192.016 493.74 192.939 494.82 194.311 496.132Z" fill="#2E4780"/>
<path d="M200.588 523.385C199.119 525.765 197.721 527.309 196.738 526.932C193.276 525.632 158.494 496.059 161.822 493.897C162.307 493.581 163.085 493.363 164.056 493.241L200.588 523.385Z" fill="#2E4780"/>
<path d="M304.44 342.78C301.72 346.57 296.85 352.351 292.842 351.768C292.697 351.744 292.538 351.719 292.343 351.683C284.693 350.334 239.696 339.053 237.571 338.627C235.409 338.202 220.265 338.056 221.127 336.465C221.989 334.874 230.649 329.834 232.956 329.955C235.264 330.077 244.361 332.712 253.445 332.421C262.541 332.143 286.346 332.421 286.346 332.421L287.5 330.43L289.201 327.491C288.724 336.308 299.351 343.497 304.44 342.78Z" fill="#FFAD94"/>
<path opacity="0.15" d="M304.44 375.642C304.44 375.642 302.367 386.68 310.445 390.36" stroke="black" stroke-width="0.8185" stroke-miterlimit="10" stroke-linecap="round"/>
<path opacity="0.15" d="M300.198 384.517C300.198 384.517 246.746 407.316 244.18 414.386C241.615 421.456 257.778 498.124 257.778 498.124" stroke="black" stroke-width="0.8185" stroke-miterlimit="10" stroke-linecap="round"/>
<path opacity="0.15" d="M346.374 387.983C346.374 388.845 337.714 409.041 330.452 411.932C323.19 414.822 279.42 411.641 279.42 411.641L257.779 425.789L262.309 468.418C262.309 468.418 253.164 419.729 253.164 416.548C253.164 413.828 313.621 396.448 329.554 378.268C335.797 379.252 340.315 379.617 340.315 379.617C340.315 379.617 346.374 387.107 346.374 387.983Z" fill="black"/>
<path opacity="0.25" d="M317.872 336.319C314.12 341.639 308.071 348.392 303.82 354.513C304.294 353.444 304.792 352.29 305.326 351.039C308.168 344.347 308.18 330.077 308.168 317.774L321.126 309.199C321.126 309.199 323.932 327.732 317.872 336.319Z" fill="black"/>
<path d="M306.807 341.14C306.249 341.651 305.678 342.159 305.106 342.634C304.9 342.707 304.682 342.756 304.439 342.78C299.351 343.496 288.724 336.306 289.197 327.489C289.234 326.833 289.755 325.521 290.605 323.809C294.953 315.041 308.033 295.524 310.438 296.422C310.438 296.422 318.842 297.722 321.126 309.198C323.264 319.972 315.551 333.04 306.807 341.14Z" fill="#169799"/>
<path opacity="0.25" d="M336.574 379.227C334.728 379.008 332.311 378.692 329.554 378.267C322.389 377.149 312.977 375.242 305.568 372.207C312.102 371.975 326.081 367.676 327.769 335.675C328.535 341.662 329.688 347.867 331.292 354.22C333.442 362.661 335.469 371.563 336.574 379.227Z" fill="black"/>
<path opacity="0.25" d="M333.126 273.664C332.458 274.442 331.936 275.145 331.535 275.742C328.923 277.102 326.398 278.754 324.831 280.04C323.737 278.838 322.73 278.364 321.783 278.255L327.54 271.005C329.287 272.06 331.243 272.995 333.126 273.664Z" fill="black"/>
<path opacity="0.25" d="M304.439 342.78C301.719 346.57 296.849 352.351 292.841 351.768C292.696 351.744 292.537 351.719 292.343 351.683C287.388 344.518 287.206 335.129 287.496 330.43L289.197 327.491C288.724 336.308 299.351 343.497 304.439 342.78Z" fill="black"/>
<path opacity="0.25" d="M346.825 255.446C346.314 256.613 345.731 257.826 345.075 259.065C343.338 262.38 343.096 265.685 342.804 268.416C342.221 267.967 341.626 267.554 341.031 267.201C337.278 269.436 334.751 271.755 333.125 273.662L333.113 273.674C327.817 271.779 321.977 267.723 321.612 265.33C321.089 261.868 325.304 255.942 321.612 255.225C317.92 254.509 315.929 260.715 315.929 260.715C312.893 261.031 311.811 255.942 306.833 255.942C306.128 255.942 305.437 256.04 304.769 256.209C302.424 256.792 300.372 258.237 299.061 259.355C299.061 259.355 304.671 251.473 313.476 253.063C313.476 253.063 312.188 250.611 306.262 250.901C318.674 246.858 326.603 248.449 330.43 252.918C333.551 256.575 340.875 261.094 346.825 255.446Z" fill="black"/>
<path d="M372.06 425.789H328.764C328.764 425.789 363.11 415.684 363.11 347.577C363.11 346.703 363.11 345.841 363.098 344.977C362.746 299.459 353.018 274.356 341.03 267.202C344.783 264.98 349.775 262.855 356.369 261.384C359.247 260.729 362.417 260.206 365.928 259.843C395.573 256.819 419.255 268.441 422.073 281.594C424.878 294.747 407.547 425.789 372.06 425.789Z" fill="#B8E3E2"/>
<path d="M363.112 347.577C363.112 415.685 328.765 425.789 328.765 425.789H257.779L260.731 423.688L279.422 411.641L316.938 409.043C318.954 400.676 324.443 400.395 332.812 399.521C337.682 399.023 338.155 390.801 336.674 379.932C335.594 372.111 333.505 362.917 331.294 354.222C329.691 347.869 328.537 341.664 327.771 335.677C326.86 328.669 326.46 321.978 326.424 315.675C326.314 301.32 328.064 289.053 329.91 280.188C330.08 279.325 330.261 278.499 330.444 277.71C330.444 277.686 330.456 277.649 330.456 277.625C330.626 277.248 331.367 275.718 333.116 273.678L333.128 273.666C334.756 271.759 337.281 269.44 341.034 267.206C341.629 267.557 342.224 267.971 342.807 268.421C353.968 276.922 362.761 301.734 363.101 344.982C363.112 345.841 363.112 346.703 363.112 347.577Z" fill="#86BFBC"/>
<path d="M349.412 526.932H298.306C296.557 526.932 295.793 524.721 297.177 523.64L309.965 513.633C315.636 509.188 318.952 502.376 318.952 495.173V425.79H328.765V495.173C328.765 502.376 332.08 509.188 337.764 513.633L350.54 523.64C351.926 524.721 351.16 526.932 349.412 526.932Z" fill="#B8E3E2"/>
<g opacity="0.25">
<path d="M388.389 262.458C388.389 262.458 388.761 263.412 389.372 265.323" stroke="black" stroke-width="0.8185" stroke-miterlimit="10" stroke-linecap="round"/>
<path d="M391.094 271.233C392.83 277.744 395.087 287.888 396.878 301.692C401.525 337.533 396.805 387.84 365.639 419.708" stroke="black" stroke-width="0.8185" stroke-miterlimit="10" stroke-linecap="round" stroke-dasharray="4.15 4.15"/>
<path d="M363.438 421.883C362.709 422.58 361.966 423.268 361.209 423.947" stroke="black" stroke-width="0.8185" stroke-miterlimit="10" stroke-linecap="round"/>
</g>
<path opacity="0.15" d="M328.766 425.79V444.735C325.365 446.508 321.916 447.869 318.953 448.865V425.79H328.766Z" fill="black"/>
<path opacity="0.15" d="M342.332 396.35C340.025 403.565 325.609 402.272 323.86 407.608C320.149 418.93 318.091 413.947 303.821 415.392C295.66 416.219 289.733 421.452 286.162 425.788H257.779L260.731 423.687L279.422 411.641L316.938 409.043C318.954 400.676 324.443 400.395 332.812 399.521C337.682 399.023 338.155 390.801 336.674 379.932C335.594 372.111 333.505 362.917 331.294 354.222C329.691 347.869 328.537 341.664 327.771 335.677C326.86 328.669 326.46 321.978 326.424 315.675C331.972 344.602 344.044 391.007 342.332 396.35Z" fill="black"/>
<path opacity="0.15" d="M363.11 347.577C363.11 346.703 363.11 345.841 363.098 344.977C362.746 299.459 353.018 274.356 341.03 267.203C344.783 264.98 349.775 262.855 356.369 261.385C354.389 264.238 352.325 268.526 353.296 273.104C355.033 281.204 374.658 312.367 367.153 362.295C361.737 398.316 363.534 417.056 369.193 425.788H328.764C328.764 425.788 363.11 415.685 363.11 347.577Z" fill="black"/>
<path opacity="0.25" d="M115.395 310.475C115.371 312.054 115.224 313.548 114.933 314.872H101.003C96.9106 312.152 90.2305 306.772 86.2227 298.695C89.9515 302.752 96.3156 307.695 102.8 309.201C108.461 310.511 112.675 309.953 115.395 310.475Z" fill="black"/>
<path d="M147.748 255.167C146.193 260.815 139.064 271.77 132.555 283.501C125.438 296.302 119.074 310.012 121.564 318.721C122.183 320.907 122.463 322.511 122.463 323.664C122.487 327.453 119.61 326.275 116.706 324.125C113.743 321.926 110.743 318.721 110.743 318.721L110.961 301.84C110.961 301.84 101.39 293.046 109.248 273.809C109.747 272.595 110.317 271.331 110.961 270.019C121.782 248.158 138.006 225.216 122.644 218.719C143.862 217.422 151.003 243.35 147.748 255.167Z" fill="#353237"/>
<g opacity="0.53">
<path d="M122.643 218.722C126.616 219.587 130.08 222.25 132.276 225.648C132.869 226.478 133.288 227.408 133.758 228.309C134.113 229.258 134.564 230.181 134.806 231.169C135.089 232.146 135.366 233.125 135.51 234.134L135.775 235.636L135.869 237.17C135.785 241.277 134.479 245.201 133.126 249.008C131.712 252.813 130.08 256.528 128.392 260.212C125.014 267.578 121.371 274.815 118.157 282.228C116.566 285.936 115.04 289.683 113.912 293.533C113.336 295.453 112.903 297.409 112.649 299.369C112.403 301.322 112.421 303.331 113.044 305.103L113.05 305.119C113.161 305.435 112.995 305.782 112.679 305.893C112.363 306.005 112.016 305.839 111.904 305.522L111.901 305.514C111.204 303.433 111.244 301.273 111.52 299.231C111.809 297.182 112.284 295.177 112.894 293.227C114.094 289.319 115.679 285.569 117.325 281.861C120.647 274.456 124.379 267.266 127.843 259.956C129.574 256.3 131.247 252.617 132.7 248.849C134.095 245.082 135.435 241.196 135.567 237.17L135.494 235.673L135.251 234.182C135.12 233.18 134.858 232.207 134.59 231.235C134.365 230.251 133.927 229.334 133.589 228.386C133.135 227.488 132.73 226.559 132.153 225.73C130.013 222.335 126.604 219.637 122.643 218.722Z" fill="black"/>
</g>
<path d="M138.007 289.282C131.521 306.381 138.007 319.351 128.267 321.199C123.81 322.049 121.842 318.746 121.029 314.907C120.057 310.365 120.701 305.083 120.701 305.083C120.701 305.083 122.353 300.857 125.826 296.751C128.656 293.411 132.676 290.156 138.007 289.282Z" fill="#169799"/>
<path d="M115.393 310.475C115.356 314.459 114.458 317.835 112.612 319.608C112.43 319.791 112.247 319.948 112.078 320.081C107.475 323.81 104.536 316.985 104.536 316.985C104.536 316.985 92.2943 310.949 86.221 298.695C81.5692 289.283 80.5379 276.191 91.4797 259.359C93.0822 271.345 99.6526 279.508 106.162 287.256C106.162 287.268 106.162 287.268 106.162 287.268C106.975 288.24 107.778 289.187 108.579 290.147C113.086 295.548 115.454 303.856 115.393 310.475Z" fill="#B8E3E2"/>
<g opacity="0.53">
<path d="M91.4746 259.359C90.4151 264.514 90.1599 269.826 90.6496 275.046C91.2016 280.248 92.6334 285.421 95.4586 289.826C98.1785 294.304 101.956 297.993 105.382 302.02C107.087 304.04 108.726 306.182 109.873 308.646C111.034 311.094 111.564 313.879 111.343 316.609C111.316 316.943 111.022 317.192 110.689 317.166C110.355 317.139 110.105 316.845 110.132 316.511C110.132 316.508 110.134 316.502 110.134 316.499C110.383 313.974 109.953 311.416 108.904 309.085C107.869 306.743 106.325 304.627 104.681 302.602C101.378 298.56 97.6191 294.75 94.9393 290.142C92.1482 285.599 90.7994 280.316 90.3469 275.076C89.9566 269.811 90.3157 264.494 91.4746 259.359Z" fill="black"/>
</g>
<g opacity="0.25">
<path d="M138.01 289.282C136.151 291.433 134.421 293.693 132.767 296C131.126 298.317 129.553 300.683 128.145 303.142C125.336 308.036 122.947 313.286 122.162 318.804L122.159 318.825C122.111 319.157 121.804 319.389 121.472 319.341C121.139 319.294 120.908 318.986 120.955 318.654C120.957 318.648 120.958 318.639 120.958 318.632C121.993 312.87 124.622 307.666 127.624 302.829C129.13 300.403 130.795 298.084 132.522 295.819C134.262 293.566 136.076 291.367 138.01 289.282Z" fill="black"/>
</g>
<path d="M134.071 319.145L129.918 344.649C129.712 345.718 128.777 346.495 127.684 346.495H101.803C100.709 346.495 99.7743 345.718 99.568 344.649L96.1923 323.942L95.4148 319.145C95.1596 317.749 96.2279 316.461 97.6494 316.461H131.837C133.258 316.462 134.327 317.749 134.071 319.145Z" fill="#B8E3E2"/>
<path d="M138.005 324.344H91.4785L92.7057 317.397C92.9727 315.94 94.2355 314.872 95.7178 314.872H133.779C135.248 314.872 136.524 315.94 136.78 317.397L138.005 324.344Z" fill="#86BFBC"/>
<path opacity="0.25" d="M120.701 305.082C120.701 305.082 120.057 310.34 121.017 314.87H114.932C115.222 313.547 115.369 312.053 115.393 310.474C115.454 303.855 113.086 295.548 108.579 290.144C107.778 289.184 106.977 288.237 106.162 287.265C106.162 287.265 106.162 287.265 106.162 287.254C106.26 283.525 107.109 279.055 109.247 273.809C109.599 279.941 111.105 290.605 117.226 291.735C121.877 292.585 127.937 287.97 132.552 283.501C130.111 287.886 127.767 292.379 125.824 296.751C122.352 300.856 120.701 305.082 120.701 305.082Z" fill="black"/>
<path opacity="0.25" d="M117.251 346.497H101.803C100.71 346.497 99.775 345.719 99.5688 344.651L96.2539 324.345H109.601C109.273 327.186 108.872 332.494 109.88 336.612C110.669 339.877 113.536 344.08 117.251 346.497Z" fill="black"/>
<path d="M234.285 136.421H168.097C164.83 136.421 162.18 133.771 162.18 130.503V81.2791C162.18 78.0117 164.83 75.3616 168.097 75.3616H234.285C237.554 75.3616 240.202 78.0117 240.202 81.2791V130.503C240.202 133.771 237.554 136.421 234.285 136.421Z" fill="#383873"/>
<path d="M180.346 96.959V103.531C180.346 104.058 180.774 104.483 181.299 104.483H184.937C185.464 104.483 185.89 104.056 185.89 103.531V96.959C185.89 96.4322 186.317 96.0063 186.842 96.0063H187.194C187.721 96.0063 188.147 96.4337 188.147 96.959V114.824C188.147 115.351 187.719 115.777 187.194 115.777H186.842C186.316 115.777 185.89 115.349 185.89 114.824V107.49C185.89 106.963 185.462 106.537 184.937 106.537H181.299C180.772 106.537 180.346 106.964 180.346 107.49V114.824C180.346 115.351 179.919 115.777 179.394 115.777H179.041C178.514 115.777 178.088 115.349 178.088 114.824V96.959C178.088 96.4322 178.515 96.0063 179.041 96.0063H179.394C179.919 96.0063 180.346 96.4322 180.346 96.959Z" fill="white"/>
<path d="M193.028 98.0303H191.326C190.799 98.0303 190.373 97.6029 190.373 97.0777V96.959C190.373 96.4322 190.8 96.0063 191.326 96.0063H198.893C199.42 96.0063 199.846 96.4337 199.846 96.959V97.0777C199.846 97.6044 199.418 98.0303 198.893 98.0303H197.191C196.664 98.0303 196.239 98.4576 196.239 98.9829V114.824C196.239 115.351 195.811 115.777 195.286 115.777H194.933C194.406 115.777 193.98 115.349 193.98 114.824V98.9829C193.98 98.4576 193.554 98.0303 193.028 98.0303Z" fill="white"/>
<path d="M213.895 107.27C213.749 104.659 213.602 101.755 213.691 99.5262H213.573C213.133 101.725 212.605 104.073 211.989 106.39L209.554 115.66H208.116L205.798 106.772C205.153 104.249 204.567 101.814 204.185 99.5262H204.098C204.098 101.844 203.979 104.601 203.863 107.417L203.523 114.868C203.5 115.376 203.081 115.777 202.571 115.777H202.468C201.919 115.777 201.485 115.316 201.517 114.768L202.577 96.9028C202.606 96.3998 203.023 96.0066 203.528 96.0066H204.325C204.76 96.0066 205.139 96.3019 205.248 96.7233L207.383 105.042C208.057 107.653 208.557 109.588 208.966 111.848H209.054C209.435 109.588 209.876 107.711 210.521 105.042L212.572 96.7307C212.677 96.3049 213.059 96.0051 213.498 96.0051H214.373C214.878 96.0051 215.296 96.3998 215.324 96.9028L216.357 114.768C216.388 115.316 215.953 115.776 215.406 115.776H215.212C214.703 115.776 214.284 115.376 214.259 114.869L213.895 107.27Z" fill="white"/>
<path d="M220.447 96.0063H220.8C221.327 96.0063 221.753 96.4337 221.753 96.959V112.917C221.753 113.444 222.18 113.87 222.705 113.87H226.372C226.898 113.87 227.324 114.297 227.324 114.823C227.324 115.349 226.897 115.775 226.372 115.775H220.447C219.92 115.775 219.494 115.348 219.494 114.823V96.9575C219.493 96.4322 219.92 96.0063 220.447 96.0063Z" fill="white"/>
<path d="M264.459 80.5921C266.935 80.5921 267.52 78.9258 267.52 77.4405C267.52 76.1347 267.385 74.8735 267.25 73.6137C267.115 72.2634 266.98 71.0467 266.98 69.6504C266.98 65.5981 269.457 63.8872 272.654 63.8872H273.194V66.2287H272.519C270.627 66.2287 269.862 67.5805 269.862 69.6059C269.862 70.8226 269.998 71.9474 270.132 73.0291C270.222 74.1998 270.356 75.28 270.356 76.3617C270.4 79.8739 269.185 81.0892 267.249 81.6308V81.7213C269.185 82.3074 270.4 83.5227 270.356 87.0794C270.356 88.2056 270.221 89.3304 270.132 90.4566C269.997 91.5828 269.862 92.709 269.862 93.9243C269.862 95.9512 270.537 97.346 272.564 97.346H273.194V99.6875H272.608C269.636 99.6875 266.98 98.2022 266.98 93.9243C266.98 92.574 267.117 91.2222 267.25 89.9165C267.385 88.6107 267.52 87.3049 267.52 86.0437C267.52 84.6029 266.934 82.846 264.459 82.846V80.5921Z" fill="#383873"/>
<path d="M310.364 82.8446C307.888 82.8446 307.303 84.6014 307.303 86.0422C307.303 87.3035 307.438 88.6092 307.573 89.915C307.708 91.2208 307.843 92.571 307.843 93.9228C307.843 98.2007 305.186 99.686 302.215 99.686H301.629V97.3445H302.26C304.286 97.119 304.962 95.9482 304.962 93.9228C304.962 92.7076 304.827 91.5813 304.736 90.4551C304.601 89.3289 304.466 88.2042 304.466 87.0779C304.421 83.5212 305.637 82.3045 307.573 81.7198V81.6293C305.637 81.0892 304.421 79.874 304.466 76.3603C304.466 75.28 304.601 74.1983 304.736 73.0276C304.827 71.9474 304.962 70.8211 304.962 69.6044C304.962 67.579 304.194 66.4528 302.304 66.2272H301.629V63.8857H302.169C305.365 63.8857 307.843 65.5966 307.843 69.6489C307.843 71.0437 307.708 72.2605 307.573 73.6122C307.438 74.8735 307.303 76.1332 307.303 77.439C307.303 78.9243 307.889 80.5907 310.364 80.5907V82.8446Z" fill="#383873"/>
<path d="M294.913 86.1181V77.4556L287.411 73.1243L279.91 77.4556V86.1181L287.411 90.4479L294.913 86.1181Z" fill="#AACE88"/>
<path d="M351.351 129.276C344.301 125.766 335.82 127.151 330.247 132.725C323.368 139.604 323.139 150.63 329.52 157.81L326.77 157.484C326.438 157.444 326.135 157.681 326.095 158.015C326.055 158.349 326.294 158.65 326.626 158.69L330.815 159.187C330.981 159.208 331.14 159.158 331.263 159.061C331.385 158.965 331.471 158.822 331.49 158.656L331.972 154.604C332.012 154.27 331.775 153.969 331.441 153.929C331.107 153.889 330.806 154.127 330.766 154.46L330.459 157.04C324.467 150.338 324.67 140.018 331.104 133.582C336.307 128.38 344.226 127.085 350.808 130.361C351.108 130.512 351.473 130.388 351.623 130.088C351.774 129.79 351.651 129.426 351.351 129.276Z" fill="#AACE88"/>
<path d="M335.586 162.884C342.635 166.395 351.117 165.009 356.69 159.435C363.569 152.556 363.799 141.53 357.417 134.35L360.167 134.676C360.501 134.716 360.802 134.478 360.842 134.145C360.882 133.811 360.643 133.51 360.311 133.47L356.122 132.971C355.956 132.952 355.797 133.001 355.675 133.098C355.554 133.194 355.468 133.336 355.448 133.503L354.966 137.555C354.926 137.887 355.163 138.19 355.497 138.23C355.831 138.27 356.132 138.033 356.172 137.699L356.48 135.119C362.471 141.822 362.268 152.141 355.834 158.576C350.632 163.779 342.713 165.074 336.13 161.798C335.831 161.646 335.466 161.771 335.316 162.071C335.163 162.37 335.286 162.734 335.586 162.884Z" fill="#AACE88"/>
<path d="M498.006 196.973H388.095C386.092 196.973 384.467 195.348 384.467 193.345C384.467 191.342 386.09 189.717 388.095 189.717H498.006C500.009 189.717 501.634 191.341 501.634 193.345C501.633 195.35 500.009 196.973 498.006 196.973Z" fill="#AACE88"/>
<path d="M458.757 212.742H388.093C386.09 212.742 384.465 211.117 384.465 209.114C384.465 207.11 386.088 205.486 388.093 205.486H458.757C460.76 205.486 462.385 207.109 462.385 209.114C462.385 211.118 460.76 212.742 458.757 212.742Z" fill="#353237"/>
<path d="M458.757 229.672H388.093C386.09 229.672 384.465 228.049 384.465 226.044C384.465 224.041 386.088 222.417 388.093 222.417H458.757C460.76 222.417 462.385 224.04 462.385 226.044C462.385 228.048 460.76 229.672 458.757 229.672Z" fill="#353237"/>
<path d="M108.288 136.7H51.1944C49.1912 136.7 47.5664 135.075 47.5664 133.072C47.5664 131.069 49.1897 129.444 51.1944 129.444H108.288C110.291 129.444 111.915 131.067 111.915 133.072C111.914 135.076 110.291 136.7 108.288 136.7Z" fill="#353237"/>
<path d="M86.732 152.469H51.1944C49.1912 152.469 47.5664 150.844 47.5664 148.841C47.5664 146.838 49.1897 145.213 51.1944 145.213H86.732C88.7351 145.213 90.3599 146.836 90.3599 148.841C90.3599 150.846 88.7351 152.469 86.732 152.469Z" fill="#AACE88"/>
<path d="M86.732 169.399H51.1944C49.1912 169.399 47.5664 167.775 47.5664 165.771C47.5664 163.768 49.1897 162.144 51.1944 162.144H86.732C88.7351 162.144 90.3599 163.767 90.3599 165.771C90.3599 167.775 88.7351 169.399 86.732 169.399Z" fill="#AACE88"/>
<path d="M448.489 399.666C444.931 409.989 440.68 419 436.234 427.138C420.871 455.204 403.031 473.058 402.363 499.229C402.363 499.229 396.826 474.576 401.27 446.484C403.759 430.708 409.395 413.85 420.92 399.666C452.994 360.22 448.246 324.344 448.246 324.344C448.246 324.344 464.326 353.77 448.489 399.666Z" fill="#169799"/>
<g opacity="0.25">
<path d="M410.7 468.529C410.229 465.257 410.357 462.073 410.657 458.876C410.973 455.69 411.546 452.532 412.365 449.446C413.955 443.257 416.319 437.293 419.19 431.61C420.573 428.738 422.225 426.01 423.839 423.27L429.003 415.296C432.294 409.935 435.07 404.249 437.407 398.386C439.764 392.531 441.747 386.521 443.412 380.424C445.093 374.332 446.469 368.152 447.552 361.921C448.64 355.692 449.435 349.406 449.828 343.093C450.017 339.937 450.104 336.77 449.968 333.61C449.889 332.031 449.79 330.449 449.533 328.888C449.273 327.336 448.984 325.754 448.247 324.342C449.008 325.742 449.325 327.324 449.61 328.875C449.894 330.436 450.018 332.019 450.124 333.601C450.312 336.766 450.276 339.941 450.14 343.107C449.864 349.443 449.116 355.753 448.098 362.011C447.08 368.272 445.769 374.484 444.147 380.62C442.541 386.759 440.615 392.82 438.306 398.741C436.017 404.667 433.281 410.436 430.004 415.907L424.887 423.909C423.298 426.626 421.668 429.328 420.312 432.17C417.49 437.792 415.177 443.678 413.629 449.763C412.837 452.799 412.28 455.895 411.936 459.005C411.612 462.097 411.483 465.295 411.893 468.302L411.9 468.359C411.945 468.691 411.713 468.997 411.381 469.041C411.052 469.089 410.747 468.859 410.7 468.529Z" fill="black"/>
</g>
<path opacity="0.25" d="M436.236 427.138C420.873 455.205 403.033 473.058 402.365 499.23C402.365 499.23 396.828 474.576 401.272 446.484C411.23 442.416 425.232 435.784 436.236 427.138Z" fill="black"/>
<path d="M411.269 526.936C411.269 526.936 400.05 507.754 426.6 484.084C453.15 460.414 473.928 429.11 469.888 403.783C444.492 433.287 376.962 475.125 396.01 526.931L411.269 526.936Z" fill="#353237"/>
<g opacity="0.25">
<path d="M469.889 403.783C467.355 409.372 463.958 414.53 460.302 419.449C456.606 424.347 452.543 428.965 448.215 433.318C443.928 437.716 439.192 441.654 434.498 445.587C429.833 449.539 425.606 454.004 421.837 458.813C414.303 468.432 408.413 479.382 404.863 491.06C403.13 496.9 401.939 502.93 401.771 509.008C401.593 515.059 402.367 521.217 404.791 526.746C404.926 527.053 404.788 527.411 404.48 527.547C404.173 527.682 403.816 527.544 403.679 527.237L403.676 527.231C401.206 521.462 400.477 515.138 400.709 508.973C400.931 502.781 402.192 496.684 403.991 490.794C407.675 479.023 413.701 468.052 421.359 458.436C425.192 453.629 429.48 449.174 434.203 445.238C438.939 441.335 443.68 437.461 447.998 433.103C452.352 428.796 456.445 424.219 460.177 419.357C463.873 414.475 467.309 409.35 469.889 403.783Z" fill="black"/>
</g>
<path d="M30.225 387.979C30.225 387.979 16.372 375.355 9.01367 343.79C51.4362 379.755 61.826 411.786 61.826 411.786L30.225 387.979Z" fill="#169799"/>
<g opacity="0.25">
<path d="M9.01367 343.79C14.9148 352.234 20.6869 360.77 26.3032 369.412C29.1091 373.735 31.8572 378.096 34.5266 382.51C37.1811 386.933 39.7793 391.395 41.9353 396.143C42.0733 396.449 41.9398 396.808 41.6341 396.948C41.3284 397.086 40.9693 396.951 40.8299 396.646C40.8284 396.643 40.8269 396.639 40.8269 396.639L40.818 396.618C38.8044 391.943 36.2997 387.427 33.7416 382.973C31.1672 378.52 28.5097 374.11 25.7913 369.739C20.3486 360.995 14.7472 352.348 9.01367 343.79Z" fill="black"/>
</g>
<path d="M60.9612 405.726C53.3344 398.852 42.0395 392.039 31.2921 384.703C16.9985 374.952 3.67518 364.24 1.20907 351.16C-4.40128 398.366 50.5047 419.621 50.5047 419.621L50.6145 419.778L70.5556 448.865C70.5556 448.865 78.7048 421.746 60.9612 405.726Z" fill="#353237"/>
<g opacity="0.25">
<path d="M1.20912 351.16C1.24325 356.422 2.77158 361.569 4.98545 366.296C7.29428 370.999 10.4281 375.278 14.1614 378.94C17.8918 382.617 22.1963 385.64 26.5914 388.491C30.9836 391.354 35.4484 394.117 39.7915 397.077C48.4497 402.96 56.7502 409.827 62.5549 418.739C68.4457 427.581 71.1641 438.304 71.1641 448.865C71.1655 449.201 70.8955 449.474 70.5601 449.475C70.2248 449.477 69.9518 449.207 69.9503 448.871V448.862C70.0453 438.485 67.4931 427.982 61.7907 419.232C56.1715 410.416 48.0238 403.523 39.4488 397.575C35.1487 394.583 30.7135 391.78 26.3422 388.87C21.9693 385.973 17.6677 382.892 13.9492 379.154C10.2293 375.434 7.12068 371.101 4.85043 366.36C2.67069 361.596 1.1928 356.422 1.20912 351.16Z" fill="black"/>
</g>
<path d="M451.851 548H82.9575C77.1394 548 72.4238 543.284 72.4238 537.466C72.4238 531.648 77.1409 526.933 82.9575 526.933H451.851C457.669 526.933 462.387 531.648 462.387 537.466C462.387 543.283 457.669 548 451.851 548Z" fill="#EAF9F8" fill-opacity="0.1"/>
</svg>
