<svg width="62" height="60" viewBox="0 0 62 60" fill="none" xmlns="http://www.w3.org/2000/svg">
<path d="M9.55764 47.2148C8.83704 47.8305 7.83129 47.9884 6.95667 47.6232L2.38926 45.707C1.45786 45.3185 0.849223 44.4104 0.84375 43.4013V16.5999C0.849223 15.5908 1.45786 14.6828 2.38926 14.2942L6.95667 12.4095C7.83129 12.0442 8.83704 12.2021 9.55764 12.8178L10.5817 13.666C10.1583 13.3616 9.59999 13.3201 9.13624 13.5586C8.67249 13.7971 8.38149 14.2754 8.38281 14.7968V45.2044C8.38149 45.7259 8.67249 46.2041 9.13624 46.4426C9.59999 46.6811 10.1583 46.6396 10.5817 46.3352L9.55764 47.2148Z" fill="#52218A"/>
<path d="M2.38926 45.707C1.45786 45.3185 0.849223 44.4105 0.84375 43.4014V43.194C0.850086 43.7875 1.21715 44.3173 1.77056 44.5318C2.32397 44.7462 2.95219 44.6021 3.35677 44.1678L42.3086 1.10097C43.4389 -0.0237541 45.1546 -0.315582 46.5933 0.37219L59.0201 6.35317C60.3264 6.98125 61.1568 8.30264 61.1562 9.75203V9.89653C61.1554 8.97687 60.6251 8.13989 59.7938 7.74643C58.9626 7.35296 57.9791 7.47337 57.2673 8.05574L10.5817 46.3353L9.55764 47.2149C8.83704 47.8306 7.83129 47.9885 6.95667 47.6232L2.38926 45.707Z" fill="#6C33AF"/>
<path d="M2.38926 14.294C1.45786 14.6825 0.849223 15.5905 0.84375 16.5997V16.807C0.850086 16.2135 1.21715 15.6837 1.77056 15.4693C2.32397 15.2548 2.95219 15.399 3.35677 15.8332L42.3086 58.9001C43.4389 60.0248 45.1546 60.3166 46.5933 59.6289L59.0201 53.6479C60.3264 53.0198 61.1568 51.6984 61.1562 50.249V50.1045C61.1554 51.0242 60.6251 51.8612 59.7938 52.2546C58.9626 52.6481 57.9791 52.5277 57.2673 51.9453L10.5817 13.6658L9.55764 12.7862C8.83068 12.1811 7.82551 12.0354 6.95667 12.4092L2.38926 14.294Z" fill="#854CC7"/>
<path d="M46.5933 59.6292C45.1547 60.3169 43.4389 60.0251 42.3086 58.9004C42.9417 59.5289 43.8904 59.7155 44.7143 59.3736C45.5383 59.0316 46.0761 58.2281 46.0781 57.336V2.67788C46.0812 1.78352 45.5452 0.975358 44.7201 0.630197C43.895 0.285036 42.9433 0.470834 42.3086 1.10097C43.4389 -0.0237541 45.1547 -0.315582 46.5933 0.37219L59.0202 6.34689C60.3264 6.97496 61.1569 8.29635 61.1562 9.74575V50.2556C61.1569 51.705 60.3264 53.0264 59.0202 53.6545L46.5933 59.6292Z" fill="#B179F1"/>
<path d="M44.1242 59.9055C44.9548 60.0951 45.8251 59.9976 46.5933 59.6291L59.0201 53.6544C60.3264 53.0263 61.1568 51.705 61.1562 50.2556V9.74569C61.1568 8.2963 60.3264 6.97491 59.0201 6.34684L46.5933 0.372135C45.714 -0.0505248 44.7051 -0.115832 43.7787 0.189941C43.2247 0.375558 42.7214 0.687422 42.3086 1.10091L22.2798 23.2532L10.5817 13.666L9.55764 12.7864C8.93252 12.252 8.08542 12.0572 7.28964 12.265C7.17484 12.2904 7.06317 12.3283 6.95667 12.3781L2.38926 14.2943C1.51766 14.6541 0.920892 15.4717 0.84375 16.4115C0.84375 16.4743 0.84375 16.5371 0.84375 16.6V43.4013C0.84375 43.4641 0.84375 43.5269 0.84375 43.5898C0.920892 44.5296 1.51766 45.3471 2.38926 45.707L6.95667 47.5918C7.06317 47.6416 7.17484 47.6795 7.28964 47.7048C8.08542 47.9126 8.93252 47.7179 9.55764 47.1834L10.5817 46.3352L22.2798 36.7481L42.3086 58.9003C42.8078 59.3987 43.4369 59.747 44.1242 59.9055ZM46.0781 17.2345L30.5037 30.0006L46.0781 42.7668V17.2345ZM8.38281 21.3747L16.1794 30.0006L8.38281 38.6266V21.3747Z" fill="url(#paint0_linear_197_5050)" fill-opacity="0.25"/>
<defs>
<linearGradient id="paint0_linear_197_5050" x1="3016.47" y1="0.146432" x2="3016.47" y2="5999.98" gradientUnits="userSpaceOnUse">
<stop stop-color="white"/>
<stop offset="1" stop-color="white" stop-opacity="0"/>
</linearGradient>
</defs>
</svg>
