<svg width="56" height="60" viewBox="0 0 56 60" fill="none" xmlns="http://www.w3.org/2000/svg">
<path d="M30.3697 0.640118C28.8487 -0.215289 26.8657 -0.211454 25.3434 0.640118C17.7191 4.84773 10.0946 9.0566 2.46891 13.2623C0.985047 14.0429 -0.015776 15.6364 0.000188247 17.2903V42.7132C-0.010526 44.3994 1.0419 46.0082 2.56403 46.7782C4.75438 47.9435 6.88243 49.227 9.11237 50.3148C11.6882 51.5805 14.9109 51.8604 17.5183 50.5404C19.6348 49.4465 20.5749 47.0132 20.5721 44.7772C20.5892 36.387 20.5749 27.9967 20.5787 19.6063C20.6291 19.2334 20.349 18.8349 19.9423 18.8439C18.9679 18.8284 17.9923 18.8349 17.0179 18.8413C16.6498 18.8066 16.2904 19.1124 16.3183 19.4824C16.3052 27.8186 16.3209 36.1573 16.3104 44.4947C16.3316 45.648 15.5524 46.7563 14.441 47.1459C11.874 48.0457 4.5471 43.2883 4.5471 43.2883C4.27821 43.1638 4.10747 42.8722 4.13383 42.5825C4.13383 34.1949 4.13513 25.8071 4.13383 17.4208C4.09686 17.0827 4.30526 16.7782 4.61576 16.6401C12.215 12.4573 19.8103 8.26402 27.4095 4.07863C27.6735 3.90247 28.0414 3.90301 28.3048 4.07992C35.904 8.26402 43.5007 12.4535 51.1012 16.6365C51.4128 16.7743 51.6122 17.0839 51.5805 17.4208C51.5793 25.8071 51.5831 34.1949 51.578 42.5814C51.6005 42.8782 51.447 43.1657 51.17 43.296C43.6417 47.4562 36.0277 51.4822 28.5675 55.7632C28.242 55.9498 27.8732 56.1613 27.5085 55.9556C25.5467 54.8705 23.6087 53.7431 21.6534 52.6475C21.4408 52.5148 21.1702 52.4578 20.9484 52.6063C20.0717 53.0683 19.2472 53.4425 18.2404 53.841C16.8266 54.4008 17.0524 54.6296 18.3277 55.3725C20.6143 56.6666 22.9048 57.9555 25.1914 59.2509C26.6968 60.1903 28.7194 60.2572 30.2732 59.3891C37.8988 55.1868 45.522 50.9795 53.1491 46.7771C54.6671 46.0029 55.7248 44.4005 55.7141 42.713V17.2903C55.7289 15.67 54.7663 14.1049 53.3272 13.3127C45.6763 9.08459 38.0218 4.86566 30.3697 0.640118Z" fill="#8CC84B"/>
<path d="M41.876 19.7275C38.8831 18.1264 35.3225 18.0411 31.9966 18.2504C29.5938 18.4879 27.0667 19.1509 25.3162 20.8733C23.5207 22.6047 23.1299 25.4007 23.9827 27.661C24.5939 29.2583 26.1322 30.2969 27.7231 30.8464C29.7723 31.5698 31.9246 31.7935 34.0775 32.0172C36.0412 32.2212 38.0056 32.4254 39.893 33.0089C40.664 33.2644 41.5619 33.6552 41.798 34.4942C42.0162 35.4876 41.777 36.6424 40.9705 37.3326C38.4084 39.3604 31.2817 39.0497 28.7504 37.4537C27.7269 36.7737 27.2859 35.5701 27.1066 34.423C27.0867 34.0656 26.7989 33.7377 26.4108 33.7649C25.439 33.7534 24.4672 33.7559 23.4954 33.7637C23.1564 33.7352 22.8039 33.9764 22.7853 34.3225C22.5856 39.5762 27.4107 41.8664 31.9374 42.3707C34.5237 42.6171 37.1667 42.6029 39.7134 42.0479C41.6279 41.6121 43.5474 40.8094 44.8653 39.3349C46.4905 37.5428 46.81 34.8747 46.0812 32.6425C45.524 30.9769 43.9317 29.9084 42.3039 29.3588C40.0904 28.5998 37.4671 28.1918 35.4622 28.0009C32.5482 27.7234 29.0853 27.8367 28.2605 25.9219C27.9316 24.9192 28.2114 23.6742 29.1329 23.0575C31.5708 21.4039 36.5326 21.6235 39.0573 22.8589C40.2166 23.4394 40.8884 24.6316 41.1657 25.8353C41.2171 26.1889 41.4549 26.5579 41.8642 26.5424C42.8294 26.5617 43.7945 26.5476 44.7595 26.5489C45.091 26.572 45.454 26.3849 45.5187 26.0455C45.4777 23.5298 44.1931 20.9545 41.876 19.7275Z" fill="#8CC84B"/>
</svg>
