<svg width="144" height="54" viewBox="0 0 144 54" fill="none" xmlns="http://www.w3.org/2000/svg">
<path d="M105.557 44.3283L109.7 33.8507H121.663L115.986 17.9567L123.087 0L143.425 53.9998H128.426L124.951 44.3283H105.557Z" fill="#3D3D3D"/>
<path d="M92.7611 53.9999L114.534 0L100.099 7.17544e-05L85.2056 34.896L74.6148 0.000143508H63.5199L52.1481 34.896L44.1285 18.9947L36.8711 41.3535L44.2396 53.9999H58.4447L68.7208 22.7058L78.5186 53.9999H92.7611Z" fill="#5A0FC8"/>
<path d="M13.7015 35.4626H22.5923C25.2855 35.4626 27.6837 35.162 29.7868 34.5608L32.0861 27.4772L38.5123 7.67938C38.0226 6.90329 37.4636 6.1695 36.8352 5.47811C33.5358 1.82599 28.7084 0 22.353 0H0V53.9999H13.7015V35.4626ZM25.4698 12.4232C26.7586 13.7203 27.4029 15.456 27.4029 17.6305C27.4029 19.8217 26.8362 21.5596 25.7028 22.8441C24.4604 24.2713 22.1725 24.9849 18.8395 24.9849H13.7015V10.4775H18.8773C21.9836 10.4775 24.1811 11.1261 25.4698 12.4232Z" fill="#3D3D3D"/>
</svg>
