<svg width="68" height="60" viewBox="0 0 68 60" fill="none" xmlns="http://www.w3.org/2000/svg">
<path d="M55.447 19.4471C54.7474 19.2063 54.0225 18.9785 53.2761 18.763C53.3988 18.2624 53.5114 17.7682 53.6115 17.2824C55.2548 9.30552 54.1803 2.87932 50.5114 0.763541C46.9933 -1.26521 41.2398 0.850088 35.429 5.90702C34.8703 6.39329 34.3099 6.90813 33.7498 7.4477C33.3766 7.09071 33.004 6.74572 32.6324 6.41574C26.5426 1.00854 20.4384 -1.27013 16.7731 0.851768C13.2584 2.8864 12.2175 8.92764 13.6967 16.4874C13.8396 17.2175 14.0066 17.9632 14.1954 18.7214C13.3315 18.9666 12.4975 19.2281 11.6994 19.5062C4.55974 21.9954 0 25.8966 0 29.9432C0 34.1225 4.89489 38.3145 12.3314 40.8563C12.9183 41.0569 13.5273 41.2465 14.1548 41.4266C13.9511 42.2465 13.7739 43.0501 13.6252 43.8338C12.2148 51.2623 13.3162 57.1608 16.8216 59.1826C20.4423 61.2705 26.5188 59.1244 32.4358 53.9522C32.9035 53.5434 33.3728 53.1098 33.843 52.6553C34.4524 53.2422 35.0609 53.7976 35.6661 54.3186C41.3974 59.2506 47.058 61.2421 50.5601 59.2147C54.1772 57.1207 55.3527 50.7843 53.8266 43.075C53.71 42.4863 53.5744 41.8848 53.422 41.2726C53.8488 41.1464 54.2677 41.0162 54.6762 40.8808C62.4072 38.3193 67.4373 34.1783 67.4373 29.9432C67.4373 25.882 62.7305 21.9545 55.447 19.4471ZM53.7702 38.1462C53.4014 38.2683 53.023 38.3863 52.6375 38.5007C51.784 35.7987 50.6321 32.9256 49.2225 29.9572C50.5677 27.0595 51.675 24.2232 52.5046 21.5388C53.1945 21.7384 53.864 21.9489 54.5092 22.1711C60.7497 24.3194 64.5564 27.4957 64.5564 29.9432C64.5564 32.5502 60.4453 35.9344 53.7702 38.1462ZM51.0004 43.6345C51.6753 47.0435 51.7717 50.1256 51.3246 52.535C50.923 54.6999 50.1153 56.1434 49.1165 56.7215C46.9913 57.9516 42.4464 56.3526 37.5449 52.1347C36.983 51.6512 36.4171 51.135 35.8493 50.5885C37.7495 48.5103 39.6486 46.0943 41.5021 43.4111C44.7622 43.1219 47.8422 42.6489 50.6354 42.0032C50.7729 42.5582 50.8951 43.1024 51.0004 43.6345ZM22.9909 56.5089C20.9145 57.2422 19.2607 57.2632 18.261 56.6868C16.1339 55.4599 15.2496 50.7239 16.4558 44.3711C16.594 43.6435 16.7584 42.8962 16.948 42.1323C19.7105 42.7431 22.768 43.1827 26.0359 43.4476C27.9019 46.0732 29.8558 48.4866 31.8249 50.5997C31.3947 51.015 30.9662 51.4104 30.54 51.783C27.9236 54.0701 25.3016 55.6928 22.9909 56.5089ZM13.2632 38.1302C9.97487 37.0063 7.25926 35.5456 5.39784 33.9516C3.72524 32.5192 2.88078 31.0971 2.88078 29.9432C2.88078 27.4876 6.5418 24.3554 12.6477 22.2266C13.3886 21.9683 14.1642 21.7248 14.969 21.4962C15.8129 24.2412 16.9199 27.1111 18.2558 30.0133C16.9026 32.9585 15.7799 35.8742 14.9277 38.6514C14.354 38.4865 13.7981 38.3129 13.2632 38.1302ZM16.524 15.9341C15.2566 9.45713 16.0983 4.57113 18.2164 3.34506C20.4725 2.03894 25.4614 3.9012 30.7195 8.57005C31.0556 8.86847 31.393 9.1808 31.7314 9.50394C29.772 11.6078 27.836 14.0031 25.9865 16.6132C22.8149 16.9071 19.7789 17.3794 16.9876 18.0117C16.8121 17.3058 16.6566 16.6122 16.524 15.9341ZM45.6134 23.117C44.9461 21.9644 44.261 20.8391 43.5627 19.7445C45.7143 20.0165 47.7758 20.3775 49.7118 20.8194C49.1306 22.6821 48.4062 24.6297 47.5534 26.6263C46.9417 25.465 46.2947 24.294 45.6134 23.117ZM33.7508 11.5628C35.0796 13.0024 36.4103 14.6097 37.7192 16.3536C36.4003 16.2913 35.065 16.2589 33.7186 16.2589C32.385 16.2589 31.0596 16.2906 29.7488 16.3518C31.059 14.6241 32.4012 13.019 33.7508 11.5628ZM21.8122 23.137C21.1457 24.2928 20.5107 25.4574 19.9086 26.6242C19.0696 24.6345 18.3519 22.678 17.7657 20.7889C19.6897 20.3583 21.7415 20.0063 23.8795 19.7394C23.1713 20.8441 22.4806 21.978 21.8122 23.137ZM23.9411 40.3525C21.7322 40.106 19.6495 39.7721 17.7259 39.3534C18.3216 37.4305 19.0551 35.4323 19.9118 33.3998C20.5155 34.5657 21.153 35.7308 21.8236 36.8892C22.5068 38.0692 23.2146 39.2252 23.9411 40.3525ZM33.8305 48.5267C32.4651 47.0534 31.1031 45.4238 29.773 43.6709C31.0642 43.7216 32.3807 43.7475 33.7186 43.7475C35.0932 43.7475 36.452 43.7165 37.7895 43.657C36.4762 45.4415 35.1503 47.0736 33.8305 48.5267ZM47.5809 33.2962C48.4823 35.3506 49.2421 37.3385 49.8454 39.2286C47.8901 39.6746 45.779 40.0339 43.5547 40.3009C44.2548 39.1915 44.9458 38.0468 45.6249 36.8693C46.3119 35.6781 46.9642 34.485 47.5809 33.2962ZM43.1294 35.4301C42.0753 37.2579 40.993 39.0028 39.8943 40.6498C37.8932 40.7929 35.8258 40.8666 33.7186 40.8666C31.62 40.8666 29.5787 40.8014 27.6129 40.6738C26.4699 39.0052 25.3641 37.2551 24.3167 35.4458C23.272 33.6414 22.3108 31.8218 21.4395 30.0123C22.3105 28.1987 23.2695 26.377 24.3082 24.5758L24.3079 24.5762C25.3494 22.7702 26.4454 21.0287 27.5779 19.3705C29.5835 19.2189 31.6401 19.1398 33.7185 19.1398C35.8063 19.1398 37.8657 19.2195 39.8707 19.3725C40.9858 21.0185 42.0744 22.7544 43.12 24.5606C44.1774 26.3871 45.1487 28.1966 46.0271 29.9714C45.1514 31.7766 44.1822 33.6045 43.1294 35.4301ZM49.0724 3.25936C51.3306 4.56164 52.2088 9.81376 50.79 16.7009C50.6995 17.1404 50.5976 17.588 50.4869 18.0416C47.6891 17.396 44.6509 16.9157 41.47 16.6172C39.617 13.9785 37.6968 11.5795 35.7693 9.50262C36.2875 9.00411 36.805 8.52876 37.3204 8.08018C42.299 3.74743 46.9523 2.03678 49.0724 3.25936ZM33.7186 23.9213C37.0444 23.9213 39.7405 26.6173 39.7405 29.9432C39.7405 33.2689 37.0444 35.9651 33.7186 35.9651C30.3929 35.9651 27.6967 33.2689 27.6967 29.9432C27.6967 26.6173 30.3929 23.9213 33.7186 23.9213Z" fill="#00D8FF"/>
</svg>
