<svg width="70" height="60" viewBox="0 0 70 60" fill="none" xmlns="http://www.w3.org/2000/svg">
<path d="M33.9284 40.7143C45.1714 40.7143 54.2856 31.6001 54.2856 20.3571C54.2856 9.1142 45.1714 0 33.9284 0C22.6855 0 13.5713 9.1142 13.5713 20.3571C13.5713 31.6001 22.6855 40.7143 33.9284 40.7143Z" fill="url(#paint0_linear_197_5068)"/>
<path d="M52.1429 49.2857C61.6106 49.2857 69.2857 41.6106 69.2857 32.1429C69.2857 22.6751 61.6106 15 52.1429 15C42.6751 15 35 22.6751 35 32.1429C35 41.6106 42.6751 49.2857 52.1429 49.2857Z" fill="url(#paint1_linear_197_5068)"/>
<mask id="mask0_197_5068" style="mask-type:alpha" maskUnits="userSpaceOnUse" x="22" y="8" width="28" height="52">
<path d="M49.9997 46.0713C49.9997 53.7639 43.7638 59.9999 36.0711 59.9999C28.3785 59.9999 22.1426 53.7639 22.1426 46.0713C22.1426 38.3789 22.1426 8.57129 22.1426 8.57129H49.9997C49.9997 8.57129 49.9997 41.1401 49.9997 46.0713Z" fill="#C4C4C4"/>
</mask>
<g mask="url(#mask0_197_5068)">
<path d="M36.0711 60.0002C43.7637 60.0002 49.9997 53.7642 49.9997 46.0716C49.9997 38.3791 43.7637 32.1431 36.0711 32.1431C28.3786 32.1431 22.1426 38.3791 22.1426 46.0716C22.1426 53.7642 28.3786 60.0002 36.0711 60.0002Z" fill="url(#paint2_linear_197_5068)"/>
<path d="M15.7139 21.4286C15.7139 17.8781 18.592 15 22.1424 15H37.1424C40.6929 15 43.571 17.8781 43.571 21.4286V47.1429C43.571 50.6934 40.6929 53.5714 37.1424 53.5714H15.7139V21.4286Z" fill="black" fill-opacity="0.3"/>
</g>
<path d="M34.9996 10.7144H4.99958C2.63265 10.7144 0.713867 12.6331 0.713867 15.0001V45.0001C0.713867 47.367 2.63265 49.2858 4.99958 49.2858H34.9996C37.3665 49.2858 39.2853 47.367 39.2853 45.0001V15.0001C39.2853 12.6331 37.3665 10.7144 34.9996 10.7144Z" fill="url(#paint3_linear_197_5068)"/>
<path d="M28.5706 34.549C28.5706 31.2269 26.3424 29.7606 21.7063 28.0546C18.0764 26.7079 17.2139 26.3187 17.2139 25.0319C17.2139 23.9245 18.2921 23.1762 20.1249 23.1762C21.9938 23.1762 23.7547 23.8047 25.7315 24.8821L27.7441 21.3207C25.6235 20.0039 23.1078 19.2856 20.0531 19.2856C15.381 19.2856 12.0387 21.6799 12.0387 25.3311C12.0387 29.0721 14.6982 30.2693 19.1546 31.8554C22.7124 33.1124 23.3954 33.7409 23.3954 34.8484C23.3954 36.1651 22.1375 36.8236 20.1609 36.8236C17.8248 36.8236 15.7763 36.0156 13.7278 34.6986L11.4277 38.1104C13.9434 39.8464 17.0701 40.7142 20.2687 40.7142C25.0846 40.7142 28.5706 38.4396 28.5706 34.549Z" fill="white"/>
<defs>
<linearGradient id="paint0_linear_197_5068" x1="13.5713" y1="20.3571" x2="57.6784" y2="20.3571" gradientUnits="userSpaceOnUse">
<stop stop-color="#103A3B"/>
<stop offset="1" stop-color="#116B6E"/>
</linearGradient>
<linearGradient id="paint1_linear_197_5068" x1="39.2857" y1="23.5714" x2="69.2857" y2="40.7143" gradientUnits="userSpaceOnUse">
<stop stop-color="#1D9097"/>
<stop offset="1" stop-color="#29BBC2"/>
</linearGradient>
<linearGradient id="paint2_linear_197_5068" x1="26.4283" y1="41.7859" x2="49.9997" y2="52.5002" gradientUnits="userSpaceOnUse">
<stop stop-color="#28A6B5"/>
<stop offset="1" stop-color="#31D6EC"/>
</linearGradient>
<linearGradient id="paint3_linear_197_5068" x1="0.713867" y1="30.0001" x2="42.4996" y2="30.0001" gradientUnits="userSpaceOnUse">
<stop stop-color="#105557"/>
<stop offset="1" stop-color="#116B6E"/>
</linearGradient>
</defs>
</svg>
