<svg width="60" height="60" viewBox="0 0 60 60" fill="none" xmlns="http://www.w3.org/2000/svg">
<path d="M35.7443 55.213C35.7443 53.0977 35.7443 46.915 35.7443 46.915H24.2549V53.298L26.808 57.7661L35.7442 59.0428H39.574C37.4589 59.0428 35.7443 57.3282 35.7443 55.213Z" fill="#FFCD60"/>
<path d="M31.9152 55.2127V53.2979H24.2556V55.2127C24.2556 57.3279 22.541 59.0425 20.4258 59.0425H35.7449C33.6299 59.0425 31.9152 57.3279 31.9152 55.2127Z" fill="#FFEAB5"/>
<path d="M55.2126 7.34033H51.3828V44.3616L59.0424 41.8085V11.1701C59.0424 9.06381 57.3189 7.34033 55.2126 7.34033Z" fill="#78E3EC"/>
<path d="M55.2124 11.1701C55.2124 9.06381 53.489 7.34033 51.3826 7.34033H4.78684C2.68051 7.34033 0.957031 9.06369 0.957031 11.1701V41.8085L28.0846 44.3616L55.2123 41.8085L55.2124 11.1701Z" fill="#D0FBFD"/>
<path d="M55.2126 41.8086L51.3828 49.4682H55.2126C57.3189 49.4682 59.0424 47.7448 59.0424 45.6384V41.8086H55.2126Z" fill="#FFCD60"/>
<path d="M55.2124 45.6384V41.8086H0.957031V45.6384C0.957031 47.7447 2.68039 49.4682 4.78684 49.4682H51.3826C53.489 49.4682 55.2124 47.7447 55.2124 45.6384Z" fill="#FFEAB5"/>
<path d="M30.0004 46.5882C30.5292 46.5882 30.9578 46.1595 30.9578 45.6308C30.9578 45.102 30.5292 44.6733 30.0004 44.6733C29.4716 44.6733 29.043 45.102 29.043 45.6308C29.043 46.1595 29.4716 46.5882 30.0004 46.5882Z" fill="black"/>
<path d="M41.4895 7.34055V31.5959L35.1064 35.4257V3.51074L41.4895 7.34055Z" fill="#FFEAB5"/>
<path d="M37.6598 4.78711V34.1488L18.5107 31.5956V7.34027L37.6598 4.78711Z" fill="white"/>
<path d="M37.6599 31.5957L33.8301 37.9787H37.6599C39.7662 37.9787 41.4897 36.2553 41.4897 34.1489V31.5957H37.6599Z" fill="#27467A"/>
<path d="M37.6599 0.95752H33.8301L37.6599 7.34049H41.4897V4.78732C41.4897 2.681 39.7662 0.95752 37.6599 0.95752Z" fill="#27467A"/>
<path d="M37.6598 31.5957V34.1489C37.6598 36.2552 35.9364 37.9787 33.83 37.9787H22.3405C20.2342 37.9787 18.5107 36.2553 18.5107 34.1489V31.5957H37.6598Z" fill="#2F5E88"/>
<path d="M37.6598 4.78732V7.34049H18.5107V4.78732C18.5107 2.681 20.2341 0.95752 22.3405 0.95752H33.83C35.9363 0.95752 37.6598 2.681 37.6598 4.78732Z" fill="#2F5E88"/>
<path d="M55.2128 6.38281H45.3191C44.7904 6.38281 44.3617 6.81148 44.3617 7.34023C44.3617 7.86898 44.7904 8.29766 45.3191 8.29766H55.2128C56.7967 8.29766 58.0852 9.58613 58.0852 11.17V40.8509H1.91484V11.17C1.91484 9.58613 3.20332 8.29766 4.78723 8.29766H14.6809C15.2096 8.29766 15.6383 7.86898 15.6383 7.34023C15.6383 6.81148 15.2096 6.38281 14.6809 6.38281H4.78723C2.14746 6.38281 0 8.53027 0 11.17V45.6382C0 48.2779 2.14746 50.4254 4.78723 50.4254H34.7872V55.2126C34.7872 56.2896 35.1448 57.2843 35.7472 58.085H24.2528C24.8552 57.2844 25.2128 56.2896 25.2128 55.2126V53.2978C25.2128 52.769 24.7841 52.3404 24.2554 52.3404C23.7266 52.3404 23.2979 52.769 23.2979 53.2978V55.2126C23.2979 56.7965 22.0095 58.085 20.4255 58.085H11.4892C10.9604 58.085 10.5318 58.5137 10.5318 59.0424C10.5318 59.5712 10.9604 59.9998 11.4892 59.9998H48.5105C49.0392 59.9998 49.4679 59.5712 49.4679 59.0424C49.4679 58.5137 49.0392 58.085 48.5105 58.085H39.5745C37.9905 58.085 36.7021 56.7965 36.7021 55.2126V50.4254H55.2127C57.8524 50.4254 59.9999 48.2779 59.9999 45.6382V11.17C60 8.53027 57.8525 6.38281 55.2128 6.38281ZM55.2128 48.5104H4.78723C3.20332 48.5104 1.91484 47.222 1.91484 45.6381V42.7657H58.0852V45.6381C58.0852 47.2221 56.7967 48.5104 55.2128 48.5104Z" fill="black"/>
<path d="M22.34 38.9361H37.6591C40.2988 38.9361 42.4463 36.7887 42.4463 34.1489V4.78723C42.4464 2.14746 40.2989 0 37.6592 0H22.34C19.7002 0 17.5527 2.14746 17.5527 4.78723V34.1489C17.5527 36.7887 19.7002 38.9361 22.34 38.9361ZM37.6592 37.0213H22.34C20.7561 37.0213 19.4676 35.7328 19.4676 34.1489V32.5532H40.5314V34.1489C40.5314 35.7328 39.243 37.0213 37.6592 37.0213ZM22.34 1.91484H37.6591C39.243 1.91484 40.5314 3.20332 40.5314 4.78723V6.38297H26.1698C25.641 6.38297 25.2123 6.81164 25.2123 7.34039C25.2123 7.86914 25.641 8.29781 26.1698 8.29781H40.5314V30.6382H19.4677V8.29793H22.3401C22.8688 8.29793 23.2975 7.86926 23.2975 7.34051C23.2975 6.81176 22.8688 6.38309 22.3401 6.38309H19.4677V4.78723C19.4677 3.20332 20.7562 1.91484 22.34 1.91484Z" fill="black"/>
<path d="M2.4 0H57.6C58.2365 0 58.847 0.252856 59.2971 0.702944C59.7471 1.15303 60 1.76348 60 2.4V57.6C60 58.2365 59.7471 58.847 59.2971 59.2971C58.847 59.7471 58.2365 60 57.6 60H2.4C1.76348 60 1.15303 59.7471 0.702944 59.2971C0.252856 58.847 0 58.2365 0 57.6V2.4C0 1.76348 0.252856 1.15303 0.702944 0.702944C1.15303 0.252856 1.76348 0 2.4 0Z" fill="#EBEDEE"/>
<path d="M6 12H54V54H6V12Z" fill="white"/>
<path d="M7.8 4.2002C8.27739 4.2002 8.73523 4.38984 9.07279 4.7274C9.41036 5.06497 9.6 5.52281 9.6 6.0002C9.6 6.47758 9.41036 6.93542 9.07279 7.27299C8.73523 7.61055 8.27739 7.8002 7.8 7.8002C7.32261 7.8002 6.86477 7.61055 6.52721 7.27299C6.18964 6.93542 6 6.47758 6 6.0002C6 5.52281 6.18964 5.06497 6.52721 4.7274C6.86477 4.38984 7.32261 4.2002 7.8 4.2002Z" fill="#E74C3C"/>
<path d="M13.8 4.2002C14.2774 4.2002 14.7352 4.38984 15.0728 4.7274C15.4104 5.06497 15.6 5.52281 15.6 6.0002C15.6 6.47758 15.4104 6.93542 15.0728 7.27299C14.7352 7.61055 14.2774 7.8002 13.8 7.8002C13.3226 7.8002 12.8648 7.61055 12.5272 7.27299C12.1896 6.93542 12 6.47758 12 6.0002C12 5.52281 12.1896 5.06497 12.5272 4.7274C12.8648 4.38984 13.3226 4.2002 13.8 4.2002Z" fill="#F39C12"/>
<path d="M19.8 4.2002C20.2774 4.2002 20.7352 4.38984 21.0728 4.7274C21.4104 5.06497 21.6 5.52281 21.6 6.0002C21.6 6.47758 21.4104 6.93542 21.0728 7.27299C20.7352 7.61055 20.2774 7.8002 19.8 7.8002C19.3226 7.8002 18.8648 7.61055 18.5272 7.27299C18.1896 6.93542 18 6.47758 18 6.0002C18 5.52281 18.1896 5.06497 18.5272 4.7274C18.8648 4.38984 19.3226 4.2002 19.8 4.2002Z" fill="#17A085"/>
<path d="M27 4.2002H54V7.8002H27V4.2002Z" fill="white"/>
<path d="M12 27V30H27V27H12ZM12 36H27V33H12V36ZM12 42H27V39H12V42ZM12 48H27V45H12V48Z" fill="#BDC3C7"/>
<path d="M12 18H48V24H12V18Z" fill="#1ABC9C"/>
<path d="M30 27V36H48V27H30ZM30 48H48V39H30V48Z" fill="#BDC3C7"/>
</svg>
