<svg width="45" height="60" viewBox="0 0 45 60" fill="none" xmlns="http://www.w3.org/2000/svg">
<path d="M18.9128 59.9618C13.2965 59.557 7.74549 58.1433 4.34112 56.2508C2.40199 55.1728 0.924638 53.848 0.344918 52.6673L0 51.9648V29.9293V7.89381L0.272932 7.33963C1.49262 4.86334 5.3852 2.63095 10.819 1.2915C12.6636 0.836782 15.3264 0.383958 17.4988 0.155615C19.717 -0.0776139 25.5967 -0.0421299 27.8095 0.218184C33.6905 0.909127 38.695 2.45598 41.779 4.53618C42.9683 5.33838 44.1887 6.62198 44.6021 7.50552L44.9566 8.26305L44.9263 30.2319L44.8959 52.2008L44.6114 52.7789C44.4549 53.0968 43.9822 53.7224 43.5609 54.1689C40.9965 56.8873 35.4959 58.8982 28.2809 59.755C26.8103 59.9297 20.4216 60.0706 18.9128 59.9618ZM29.2628 41.0804C29.2412 41.0241 28.4016 40.2761 27.3971 39.4182C26.3925 38.5603 25.5273 37.818 25.4744 37.7687C25.4215 37.7194 25.6071 37.545 25.8869 37.381C26.1666 37.217 26.7025 36.7608 27.0778 36.3673C28.1754 35.2164 28.6933 33.7947 28.6933 31.9325C28.6933 30.0993 28.1348 28.6201 27.0161 27.491C25.8887 26.3529 24.5942 25.8639 22.7091 25.8639C19.8033 25.8639 17.5716 27.5594 16.8594 30.3083C16.6143 31.2538 16.6156 33.1643 16.8619 34.0027C17.5043 36.1896 19.2537 37.7779 21.431 38.1508C22.1678 38.277 22.2676 38.3314 22.77 38.8806C23.0685 39.207 23.6811 39.8585 24.1313 40.3284L24.9499 41.1827H27.126C28.3229 41.1827 29.2844 41.1367 29.2628 41.0804ZM21.8001 34.9874C21.2762 34.7142 21.0781 34.5023 20.7794 33.8949C20.5487 33.4259 20.5092 33.1591 20.5066 32.0504C20.504 30.9238 20.5399 30.6804 20.7808 30.1912C21.175 29.3908 21.7181 29.0118 22.5584 28.951C23.728 28.8662 24.4031 29.4402 24.757 30.8197C25.1908 32.511 24.7137 34.3092 23.6729 34.9059C23.1268 35.219 22.3123 35.2545 21.8001 34.9874ZM12.1545 38.1268C14.4361 37.6941 15.7312 36.3673 15.7312 34.4626C15.7312 32.7729 14.8951 31.7883 12.5841 30.7566C11.2612 30.166 10.782 29.7954 10.782 29.3622C10.782 29.0033 11.2368 28.6099 11.7661 28.5111C12.283 28.4146 13.6539 28.6527 14.4634 28.9797L15.142 29.2538V27.7518V26.2496L14.4055 26.0862C13.9504 25.9853 12.9939 25.9247 11.9015 25.9278C10.3541 25.9278 10.0511 25.9655 9.4688 26.1967C7.76785 26.872 6.96069 28.0223 6.9736 29.7526C6.98568 31.3724 7.84022 32.3828 9.96695 33.2918C11.2218 33.8281 11.7248 34.2365 11.7248 34.7191C11.7248 35.7447 10.0159 35.8709 8.20673 34.979C7.71126 34.7347 7.2661 34.5149 7.21749 34.4906C7.16889 34.4663 7.12913 35.1679 7.12913 36.0499C7.12913 37.6462 7.13083 37.6539 7.41985 37.764C8.50824 38.1778 10.9138 38.3621 12.1545 38.1268ZM38.2381 36.646V35.2909H36.1759H34.1138V30.6363V25.9818H32.2873H30.4608V31.9914V38.0011H34.3494H38.2381V36.646ZM25.5117 12.8988C29.1412 12.6471 31.8619 12.1718 34.2561 11.3713C36.6412 10.5738 38.0501 9.60885 38.3653 8.55696C38.4867 8.15162 38.478 7.99787 38.3083 7.55344C37.5474 5.56101 33.2967 4.03021 26.8013 3.40956C24.0228 3.14401 18.9698 3.2301 16.3206 3.58795C12.2782 4.13412 8.99769 5.14862 7.53903 6.30362C4.5883 8.64019 7.70871 11.2101 14.9653 12.4197C18.1117 12.9442 22.1882 13.1294 25.5117 12.8988Z" fill="#00BCF2"/>
</svg>
