<svg width="78" height="60" viewBox="0 0 78 60" fill="none" xmlns="http://www.w3.org/2000/svg">
<path d="M44.7443 55.213C44.7443 53.0977 44.7443 46.915 44.7443 46.915H33.2549V53.298L35.808 57.7661L44.7442 59.0428H48.574C46.4589 59.0428 44.7443 57.3282 44.7443 55.213Z" fill="#FFCD60"/>
<path d="M40.9152 55.2127V53.2979H33.2556V55.2127C33.2556 57.3279 31.541 59.0425 29.4258 59.0425H44.7449C42.6299 59.0425 40.9152 57.3279 40.9152 55.2127Z" fill="#FFEAB5"/>
<path d="M64.2126 7.34033H60.3828V44.3616L68.0424 41.8085V11.1701C68.0424 9.06381 66.3189 7.34033 64.2126 7.34033Z" fill="#78E3EC"/>
<path d="M64.2124 11.1701C64.2124 9.06381 62.489 7.34033 60.3826 7.34033H13.7868C11.6805 7.34033 9.95703 9.06369 9.95703 11.1701V41.8085L37.0846 44.3616L64.2123 41.8085L64.2124 11.1701Z" fill="#D0FBFD"/>
<path d="M64.2126 41.8086L60.3828 49.4682H64.2126C66.3189 49.4682 68.0424 47.7448 68.0424 45.6384V41.8086H64.2126Z" fill="#FFCD60"/>
<path d="M64.2124 45.6384V41.8086H9.95703V45.6384C9.95703 47.7447 11.6804 49.4682 13.7868 49.4682H60.3826C62.489 49.4682 64.2124 47.7447 64.2124 45.6384Z" fill="#FFEAB5"/>
<path d="M39.0004 46.5882C39.5292 46.5882 39.9578 46.1595 39.9578 45.6308C39.9578 45.102 39.5292 44.6733 39.0004 44.6733C38.4716 44.6733 38.043 45.102 38.043 45.6308C38.043 46.1595 38.4716 46.5882 39.0004 46.5882Z" fill="black"/>
<path d="M50.4895 7.34055V31.5959L44.1064 35.4257V3.51074L50.4895 7.34055Z" fill="#FFEAB5"/>
<path d="M46.6598 4.78711V34.1488L27.5107 31.5956V7.34027L46.6598 4.78711Z" fill="white"/>
<path d="M46.6599 31.5957L42.8301 37.9787H46.6599C48.7662 37.9787 50.4897 36.2553 50.4897 34.1489V31.5957H46.6599Z" fill="#27467A"/>
<path d="M46.6599 0.95752H42.8301L46.6599 7.34049H50.4897V4.78732C50.4897 2.681 48.7662 0.95752 46.6599 0.95752Z" fill="#27467A"/>
<path d="M46.6598 31.5957V34.1489C46.6598 36.2552 44.9364 37.9787 42.83 37.9787H31.3405C29.2342 37.9787 27.5107 36.2553 27.5107 34.1489V31.5957H46.6598Z" fill="#2F5E88"/>
<path d="M46.6598 4.78732V7.34049H27.5107V4.78732C27.5107 2.681 29.2341 0.95752 31.3405 0.95752H42.83C44.9363 0.95752 46.6598 2.681 46.6598 4.78732Z" fill="#2F5E88"/>
<path d="M64.2128 6.38281H54.3191C53.7904 6.38281 53.3617 6.81148 53.3617 7.34023C53.3617 7.86898 53.7904 8.29766 54.3191 8.29766H64.2128C65.7967 8.29766 67.0852 9.58613 67.0852 11.17V40.8509H10.9148V11.17C10.9148 9.58613 12.2033 8.29766 13.7872 8.29766H23.6809C24.2096 8.29766 24.6383 7.86898 24.6383 7.34023C24.6383 6.81148 24.2096 6.38281 23.6809 6.38281H13.7872C11.1475 6.38281 9 8.53027 9 11.17V45.6382C9 48.2779 11.1475 50.4254 13.7872 50.4254H43.7872V55.2126C43.7872 56.2896 44.1448 57.2843 44.7472 58.085H33.2528C33.8552 57.2844 34.2128 56.2896 34.2128 55.2126V53.2978C34.2128 52.769 33.7841 52.3404 33.2554 52.3404C32.7266 52.3404 32.2979 52.769 32.2979 53.2978V55.2126C32.2979 56.7965 31.0095 58.085 29.4255 58.085H20.4892C19.9604 58.085 19.5318 58.5137 19.5318 59.0424C19.5318 59.5712 19.9604 59.9998 20.4892 59.9998H57.5105C58.0392 59.9998 58.4679 59.5712 58.4679 59.0424C58.4679 58.5137 58.0392 58.085 57.5105 58.085H48.5745C46.9905 58.085 45.7021 56.7965 45.7021 55.2126V50.4254H64.2127C66.8524 50.4254 68.9999 48.2779 68.9999 45.6382V11.17C69 8.53027 66.8525 6.38281 64.2128 6.38281ZM64.2128 48.5104H13.7872C12.2033 48.5104 10.9148 47.222 10.9148 45.6381V42.7657H67.0852V45.6381C67.0852 47.2221 65.7967 48.5104 64.2128 48.5104Z" fill="black"/>
<path d="M31.34 38.9361H46.6591C49.2988 38.9361 51.4463 36.7887 51.4463 34.1489V4.78723C51.4464 2.14746 49.2989 0 46.6592 0H31.34C28.7002 0 26.5527 2.14746 26.5527 4.78723V34.1489C26.5527 36.7887 28.7002 38.9361 31.34 38.9361ZM46.6592 37.0213H31.34C29.7561 37.0213 28.4676 35.7328 28.4676 34.1489V32.5532H49.5314V34.1489C49.5314 35.7328 48.243 37.0213 46.6592 37.0213ZM31.34 1.91484H46.6591C48.243 1.91484 49.5314 3.20332 49.5314 4.78723V6.38297H35.1698C34.641 6.38297 34.2123 6.81164 34.2123 7.34039C34.2123 7.86914 34.641 8.29781 35.1698 8.29781H49.5314V30.6382H28.4677V8.29793H31.3401C31.8688 8.29793 32.2975 7.86926 32.2975 7.34051C32.2975 6.81176 31.8688 6.38309 31.3401 6.38309H28.4677V4.78723C28.4677 3.20332 29.7562 1.91484 31.34 1.91484Z" fill="black"/>
<path d="M77.3149 0H0V60H77.3149V0Z" fill="black"/>
<path d="M6.67337 6.18757C7.41795 6.18757 8.02155 5.58397 8.02155 4.83939C8.02155 4.09481 7.41795 3.49121 6.67337 3.49121C5.9288 3.49121 5.3252 4.09481 5.3252 4.83939C5.3252 5.58397 5.9288 6.18757 6.67337 6.18757Z" fill="#E21B1B"/>
<g opacity="0.7">
<path d="M10.7163 6.18757C11.4609 6.18757 12.0645 5.58397 12.0645 4.83939C12.0645 4.09481 11.4609 3.49121 10.7163 3.49121C9.97176 3.49121 9.36816 4.09481 9.36816 4.83939C9.36816 5.58397 9.97176 6.18757 10.7163 6.18757Z" fill="white"/>
</g>
<path d="M14.7593 6.18757C15.5039 6.18757 16.1075 5.58397 16.1075 4.83939C16.1075 4.09481 15.5039 3.49121 14.7593 3.49121C14.0147 3.49121 13.4111 4.09481 13.4111 4.83939C13.4111 5.58397 14.0147 6.18757 14.7593 6.18757Z" fill="#666666"/>
<path d="M66.975 7.20724H23.5518L26.439 2.47412H69.8646L66.975 7.20724Z" fill="#666666"/>
<path d="M29.4757 3.78516L29.7559 4.86152C29.8175 5.09709 29.8767 5.31575 29.9142 5.53441H29.9287C29.9758 5.32058 30.0495 5.09347 30.1159 4.86636L30.4626 3.78516H30.7864L31.1138 4.8434C31.1923 5.09588 31.2539 5.32058 31.3022 5.53441H31.3155C31.3578 5.30246 31.4122 5.07414 31.4786 4.84824L31.7818 3.78516H32.1624L31.4798 5.90165H31.1307L30.8069 4.89173C30.7332 4.65012 30.6716 4.44596 30.6185 4.19468H30.61C30.5593 4.43146 30.4953 4.66582 30.4167 4.89535L30.0749 5.90165H29.7257L29.0879 3.78516H29.4757Z" fill="white"/>
<path d="M32.7464 3.78516L33.0266 4.86152C33.0882 5.09709 33.1474 5.31575 33.1849 5.53441H33.1982C33.2465 5.32058 33.319 5.09347 33.3866 4.86636L33.7309 3.78516H34.0547L34.3833 4.8434C34.4618 5.09588 34.5234 5.32058 34.5705 5.53441H34.585C34.6261 5.30246 34.6804 5.07293 34.7481 4.84824L35.0513 3.78516H35.4318L34.7493 5.90165H34.3978L34.074 4.89173C33.9991 4.6634 33.9363 4.43025 33.8868 4.19468H33.8771C33.8276 4.43146 33.7635 4.66582 33.685 4.89535L33.3431 5.90165H32.9916L32.3525 3.78516H32.7464Z" fill="white"/>
<path d="M36.0122 3.78516L36.2925 4.86152C36.3541 5.09709 36.4133 5.31575 36.4507 5.53441H36.464C36.5123 5.32058 36.5848 5.09347 36.6525 4.86636L36.9968 3.78516H37.3205L37.6491 4.8434C37.7276 5.09588 37.7893 5.32058 37.8364 5.53441H37.8509C37.8919 5.30246 37.9463 5.07293 38.014 4.84824L38.3172 3.78516H38.6977L38.0152 5.90165H37.6636L37.3387 4.89173C37.2638 4.6634 37.2009 4.43025 37.1514 4.19468H37.1417C37.0922 4.43146 37.0282 4.66582 36.9497 4.89535L36.6078 5.90165H36.2562L35.6172 3.78516H36.0122Z" fill="white"/>
<path d="M0 55.3057H12.5117L17.2062 59.9989H0V55.3057Z" fill="#666666"/>
<path d="M77.3146 55.3057H64.8029L60.1084 59.9989H77.3146V55.3057Z" fill="#666666"/>
<path d="M64.246 39.9706H13.0684V21.7363H64.246V39.9706ZM13.9744 39.0597H63.34V22.6424H13.9744V39.0597Z" fill="#E21B1B"/>
<path d="M32.7967 35.5965H30.8348L30.6222 28.6998L27.1817 35.5965H25.186L24.832 26.1641H26.7299L26.8193 32.766L30.0556 26.1653H32.16L32.3787 32.696L35.4858 26.1653H37.3655L32.7967 35.5965Z" fill="white"/>
<path d="M36.2666 35.5965L38.2357 26.1641H45.2303L44.9017 27.7345H39.8497L39.3991 29.8776H44.2832L43.9558 31.4481H39.0717L38.4797 34.0091H43.9739L43.6393 35.5796L36.2666 35.5965Z" fill="white"/>
<path d="M45.041 35.5963L47.0174 26.1639H50.2404C50.7309 26.153 51.2214 26.1747 51.7082 26.2279C52.1226 26.2762 52.5236 26.4067 52.8861 26.6133C53.1977 26.7969 53.4514 27.0639 53.6181 27.3852C53.7873 27.715 53.8742 28.0822 53.8694 28.4531C53.8815 28.9424 53.7269 29.422 53.4321 29.8134C53.0818 30.2362 52.6106 30.5406 52.0815 30.6856C52.5273 30.7931 52.9259 31.0419 53.2171 31.3959C53.4828 31.7221 53.6278 32.1304 53.6254 32.5508C53.6242 33.1234 53.4563 33.6827 53.1422 34.1623C52.8305 34.6625 52.3642 35.0478 51.8133 35.2592C51.0655 35.5105 50.2779 35.6241 49.4902 35.5939L45.041 35.5963ZM47.3001 34.0778H49.1677C49.6992 34.1068 50.232 34.0548 50.7478 33.9268C51.0088 33.8313 51.2335 33.6562 51.3905 33.4278C51.5451 33.214 51.6297 32.9579 51.6321 32.6946C51.6382 32.3974 51.5113 32.1123 51.2842 31.919C50.9459 31.6834 50.5364 31.5747 50.1257 31.6133H47.8147L47.3001 34.0778ZM48.1554 29.9704H49.6352C50.1184 29.9909 50.6004 29.9426 51.0704 29.8291C51.3349 29.7542 51.5669 29.5911 51.7263 29.3664C51.8677 29.1646 51.945 28.9242 51.945 28.6778C51.9535 28.4616 51.8798 28.2502 51.7396 28.0859C51.5838 27.9216 51.3784 27.814 51.1549 27.7778C50.8143 27.7428 50.4724 27.7295 50.1305 27.7391H48.6253L48.1554 29.9704Z" fill="white"/>
</svg>
